<?xml version="1.0" encoding="UTF-8" standalone="no"?>
<!-- Created with Inkscape (http://www.inkscape.org/) -->

<svg
   xmlns:dc="http://purl.org/dc/elements/1.1/"
   xmlns:cc="http://creativecommons.org/ns#"
   xmlns:rdf="http://www.w3.org/1999/02/22-rdf-syntax-ns#"
   xmlns:svg="http://www.w3.org/2000/svg"
   xmlns="http://www.w3.org/2000/svg"
   xmlns:sodipodi="http://sodipodi.sourceforge.net/DTD/sodipodi-0.dtd"
   xmlns:inkscape="http://www.inkscape.org/namespaces/inkscape"
   width="180.0108"
   height="30.698469"
   id="svg4240"
   version="1.1"
   inkscape:version="0.48.4 r9939"
   sodipodi:docname="SatNOGS_logo_vector-2in.svg">
  <defs
     id="defs4242" />
  <sodipodi:namedview
     id="base"
     pagecolor="#ffffff"
     bordercolor="#666666"
     borderopacity="1.0"
     inkscape:pageopacity="0.0"
     inkscape:pageshadow="2"
     inkscape:zoom="0.98994949"
     inkscape:cx="363.45655"
     inkscape:cy="23.833316"
     inkscape:document-units="in"
     inkscape:current-layer="layer1"
     showgrid="false"
     fit-margin-top="0"
     fit-margin-left="0"
     fit-margin-right="0"
     fit-margin-bottom="0"
     inkscape:window-width="1097"
     inkscape:window-height="773"
     inkscape:window-x="-4"
     inkscape:window-y="-4"
     inkscape:window-maximized="1" />
  <metadata
     id="metadata4245">
    <rdf:RDF>
      <cc:Work
         rdf:about="">
        <dc:format>image/svg+xml</dc:format>
        <dc:type
           rdf:resource="http://purl.org/dc/dcmitype/StillImage" />
        <dc:title></dc:title>
      </cc:Work>
    </rdf:RDF>
  </metadata>
  <g
     inkscape:label="Layer 1"
     inkscape:groupmode="layer"
     id="layer1"
     transform="translate(-19.181953,-407.39098)">
    <path
       style="fill:none;stroke:#000000;stroke-width:0.24389404;stroke-opacity:1"
       d="m 23.582395,437.64109 c -1.739089,-0.3885 -3.489304,-0.99882 -3.942221,-1.37471 -0.403841,-0.33516 -0.470851,-5.94587 -0.07394,-6.19117 0.13859,-0.0857 1.044046,0.17302 2.012126,0.57484 2.598379,1.0785 4.704308,1.57044 6.759971,1.57911 2.830983,0.0119 3.902305,-0.73323 3.902305,-2.71427 0,-1.34358 -1.110299,-2.28196 -5.101182,-4.31129 -3.610979,-1.83615 -5.536898,-3.40518 -6.560205,-5.34456 -0.597437,-1.13226 -0.654804,-1.4786 -0.650074,-3.92469 0.0044,-2.28121 0.08482,-2.83313 0.537104,-3.68681 1.182385,-2.23174 3.055684,-3.70044 5.547739,-4.34954 2.086895,-0.54356 6.167859,-0.49782 8.486262,0.0951 2.388549,0.61089 4.325495,1.44874 4.325495,1.87105 0,0.41246 -1.675316,4.52241 -1.970308,4.83364 -0.131161,0.13838 -0.960974,-0.0328 -2.128047,-0.43912 -4.797312,-1.67 -7.842813,-1.1732 -8.251632,1.34606 -0.226161,1.39367 0.790498,2.30209 4.982328,4.4519 4.182389,2.14496 5.824305,3.46168 6.803715,5.45617 0.597655,1.21707 0.685891,1.67914 0.685891,3.5918 0,2.76144 -0.511821,4.17983 -2.123024,5.88344 -1.299407,1.37393 -3.224401,2.37819 -5.320617,2.77573 -1.780022,0.33757 -6.165318,0.26964 -7.921684,-0.12271 z m 22.560197,0.004 c -3.376747,-1.08912 -5.203899,-5.25051 -4.049263,-9.22231 0.989949,-3.4053 3.88083,-4.82671 10.573429,-5.19883 l 2.987702,-0.16611 -9.76e-4,-0.75702 c -0.0012,-1.00256 -0.811133,-2.29048 -1.645485,-2.6166 -1.010865,-0.39513 -3.860218,-0.0918 -5.82188,0.61983 -0.955157,0.34651 -1.859389,0.63002 -2.009338,0.63002 -0.308423,0 -2.229235,-3.68454 -2.229235,-4.27616 0,-0.49501 2.027401,-1.39277 4.316293,-1.9113 2.176456,-0.49307 6.545708,-0.51942 8.308635,-0.0501 1.694815,0.45117 3.260539,1.39114 4.194183,2.51795 1.395303,1.68398 1.486368,2.44991 1.415185,11.90258 l -0.06419,8.52379 -2.298826,0 -2.298826,0 -0.487495,-1.21947 c -0.268123,-0.67071 -0.520341,-1.2623 -0.560483,-1.31465 -0.04015,-0.0523 -0.528902,0.31671 -1.086131,0.82014 -1.63681,1.47876 -2.901544,1.92258 -5.706835,2.00264 -1.639573,0.0468 -2.798655,-0.0464 -3.536464,-0.28438 z m 7.725939,-5.39642 c 1.234118,-0.9214 1.634756,-1.70682 1.743745,-3.41846 l 0.102547,-1.61047 -1.798413,0.16903 c -3.364697,0.31626 -4.578901,0.8958 -5.084137,2.42668 -0.3527,1.06869 -0.112609,1.97487 0.691271,2.60908 0.534601,0.42178 0.900423,0.49132 2.165011,0.41157 1.028918,-0.0649 1.734884,-0.25512 2.179976,-0.58743 z m 18.941375,5.42392 c -2.22106,-0.72944 -3.495987,-2.30238 -3.966352,-4.89349 -0.14449,-0.79595 -0.26271,-4.00073 -0.26271,-7.12173 l 0,-5.67454 -1.402391,-0.0731 -1.402391,-0.0731 -0.07216,-1.5068 -0.07216,-1.5068 1.704556,-1.01266 c 1.700712,-1.01038 1.706232,-1.01715 2.448967,-3.00524 1.089743,-2.91694 0.853929,-2.72426 3.334193,-2.72426 l 2.168464,0 0.06981,2.37796 0.0698,2.37797 3.039844,0 3.039844,0 0,2.56089 0,2.56089 -3.048675,0 -3.048676,0 0,5.62559 c 0,3.3442 0.100523,5.81343 0.247874,6.08876 0.13633,0.25473 0.660714,0.58684 1.165297,0.73802 0.885384,0.26527 1.474088,0.20855 4.265921,-0.41097 l 0.679265,-0.15073 -0.06953,2.62787 -0.06953,2.62787 -0.975576,0.35387 c -1.387464,0.50326 -6.535107,0.64358 -7.843693,0.21382 z m 59.305334,-0.01 c -8.40234,-1.91419 -15.76866,-9.8936 -16.3855,-17.74925 -0.44684,-5.69055 2.58876,-10.16665 7.84921,-11.57394 1.90549,-0.50976 5.72821,-0.42267 7.96736,0.18152 2.24033,0.6045 5.90569,2.37731 5.99792,2.90097 0.0354,0.20121 -1.72514,2.72313 -3.80593,5.60426 -2.0808,2.88113 -3.82681,5.24803 -3.82681,5.52594 0,0.68927 0.58707,1.48261 1.3709,1.48261 0.57401,0 1.13082,-0.83699 4.5078,-5.53988 2.1191,-2.95112 3.97887,-5.36567 4.13284,-5.36567 0.37901,0 3.09507,2.77641 4.10249,4.19364 3.90188,5.48918 4.40402,12.44727 1.20076,16.63891 -1.08633,1.42153 -2.71086,2.58853 -4.63835,3.33202 -1.77197,0.68349 -6.23816,0.87794 -8.47269,0.36887 z m 28.01415,-0.004 c -4.69326,-1.07229 -8.0257,-4.50275 -9.27283,-9.54559 -0.5914,-2.39134 -0.5846,-8.16851 0.0122,-10.34974 0.69757,-2.54963 1.96129,-4.68902 3.78052,-6.40015 1.87213,-1.76089 3.63724,-2.69431 6.43086,-3.40075 2.80761,-0.70999 8.1424,-0.54195 11.11677,0.35017 2.94796,0.8842 2.92513,0.83478 1.72425,3.73199 -0.5531,1.3344 -1.07625,2.49904 -1.16256,2.58811 -0.0863,0.0891 -1.1447,-0.17181 -2.35197,-0.57971 -1.81533,-0.61335 -2.5854,-0.74205 -4.45152,-0.74396 -2.04174,-0.002 -2.40531,0.071 -3.82047,0.76764 -1.85679,0.9141 -2.87195,1.99832 -3.89768,4.16289 -0.72085,1.52115 -0.75673,1.74143 -0.75673,4.64554 0,2.35905 0.10463,3.35212 0.46254,4.3901 0.6547,1.89874 1.68766,3.2962 3.00867,4.07037 0.96565,0.5659 1.482,0.68231 3.39832,0.76612 1.24281,0.0544 2.65112,0.0254 3.12958,-0.0644 l 0.86992,-0.1632 -0.0689,-2.73128 -0.0688,-2.73128 -2.74381,-0.069 -2.74381,-0.069 0,-2.7968 0,-2.79679 6.09736,0 6.09735,0 0,7.81064 0,7.81065 -0.67071,0.25855 c -3.07993,1.1873 -11.0105,1.79887 -14.11855,1.08876 z m 23.91817,0.0986 c -0.68012,-0.12201 -1.94227,-0.47319 -2.80478,-0.7804 l -1.5682,-0.55855 -0.0688,-3.02717 c -0.0378,-1.66495 0.0174,-3.1134 0.1228,-3.21879 0.10539,-0.10538 1.23387,0.20053 2.50775,0.67981 2.72941,1.02689 5.79909,1.61861 7.26146,1.39973 2.9825,-0.44639 3.90938,-3.14576 1.66505,-4.84916 -0.4163,-0.31597 -2.23252,-1.32073 -4.03604,-2.23279 -3.6903,-1.86624 -5.58746,-3.46953 -6.59968,-5.57738 -0.4877,-1.01559 -0.58753,-1.60684 -0.59712,-3.53646 -0.01,-2.00482 0.0746,-2.50056 0.62744,-3.6795 1.6753,-3.57241 4.80709,-5.02435 10.36352,-4.80469 2.47545,0.0978 3.25617,0.23618 5.33842,0.94586 1.73948,0.59285 2.46197,0.95578 2.51923,1.26549 0.11024,0.59621 -1.68016,5.05337 -2.02988,5.05337 -0.15508,0 -1.09689,-0.27796 -2.09291,-0.61768 -4.92559,-1.68001 -8.03025,-1.066 -8.03025,1.58815 0,1.40264 0.82268,2.18915 3.83504,3.6664 5.0942,2.49818 7.41707,4.40648 8.21527,6.74907 0.43602,1.27964 0.51519,4.36641 0.14608,5.69506 -0.38366,1.38101 -1.59087,3.07116 -2.85471,3.99674 -1.9756,1.44683 -3.62568,1.88958 -7.39053,1.98303 -1.81091,0.0449 -3.84903,-0.0181 -4.52915,-0.14014 z m -97.791361,-0.29168 c -0.06576,-0.17195 -0.0911,-6.89778 -0.05631,-14.94629 l 0.06327,-14.63364 4.050597,-0.0667 c 3.052827,-0.0503 4.112278,0.01 4.300996,0.24389 0.13772,0.17084 2.853046,4.81045 6.034058,10.31026 3.18102,5.49982 5.82538,10.04305 5.87637,10.09607 0.051,0.053 0.0227,-4.28752 -0.0628,-9.64567 -0.0855,-5.35815 -0.0802,-10.04192 0.0117,-10.40839 l 0.16724,-0.66631 2.98118,0.0684 2.98118,0.0684 0,14.87754 0,14.87753 -4.13458,0 -4.13459,0 -1.49799,-2.56088 c -0.82389,-1.40849 -3.509087,-6.07297 -5.967091,-10.3655 -2.458005,-4.29254 -4.532946,-7.88153 -4.610977,-7.97555 -0.07803,-0.094 -0.141876,4.57046 -0.141876,10.3655 l 0,10.53643 -2.870423,0.0688 c -2.160679,0.0517 -2.899991,-0.009 -2.989997,-0.2439 z m 44.506071,-14.26275 c -0.16611,-0.16611 -0.12781,-0.32307 -0.12781,-0.5085 0,-0.18543 2.05215,-2.9896 4.40064,-6.23149 3.19376,-4.40872 4.19589,-5.76406 4.10525,-6.15289 -0.16606,-0.71242 0.29374,-1.46794 0.7717,-1.85456 1.14752,-0.92819 2.56869,-0.59349 2.56869,0.9613 0,1.1444 -1.14439,1.63497 -2.07784,1.87934 -0.57715,0.15108 -1.26418,1.5305 -4.67,6.25828 -4.18883,5.8147 -4.2466,6.37255 -4.97063,5.64852 z"
       id="path4259"
       inkscape:connector-curvature="0"
       sodipodi:nodetypes="sssssssssssssssssssssssssccscsssssscccscssssscsssssssscccccssscccccccccsssscccssssssssssssssssssssssscscssssssscccccccccccsscscssssssssssssssssssssccscssscsscccccccsssscscsssssssss" />
  </g>
</svg>
