<?xml version="1.0" encoding="UTF-8" standalone="no"?>
<!-- Created with Inkscape (http://www.inkscape.org/) -->

<svg
   xmlns:dc="http://purl.org/dc/elements/1.1/"
   xmlns:cc="http://creativecommons.org/ns#"
   xmlns:rdf="http://www.w3.org/1999/02/22-rdf-syntax-ns#"
   xmlns:svg="http://www.w3.org/2000/svg"
   xmlns="http://www.w3.org/2000/svg"
   xmlns:sodipodi="http://sodipodi.sourceforge.net/DTD/sodipodi-0.dtd"
   xmlns:inkscape="http://www.inkscape.org/namespaces/inkscape"
   width="738.02539"
   height="125.90289"
   id="svg4240"
   version="1.1"
   inkscape:version="0.48.4 r9939"
   sodipodi:docname="SatNOGS_logo_vector.svg">
  <defs
     id="defs4242" />
  <sodipodi:namedview
     id="base"
     pagecolor="#ffffff"
     bordercolor="#666666"
     borderopacity="1.0"
     inkscape:pageopacity="0.0"
     inkscape:pageshadow="2"
     inkscape:zoom="1.979899"
     inkscape:cx="236.31735"
     inkscape:cy="46.243869"
     inkscape:document-units="mm"
     inkscape:current-layer="layer1"
     showgrid="false"
     fit-margin-top="0"
     fit-margin-left="0"
     fit-margin-right="0"
     fit-margin-bottom="0"
     inkscape:window-width="1097"
     inkscape:window-height="773"
     inkscape:window-x="-4"
     inkscape:window-y="-4"
     inkscape:window-maximized="1" />
  <metadata
     id="metadata4245">
    <rdf:RDF>
      <cc:Work
         rdf:about="">
        <dc:format>image/svg+xml</dc:format>
        <dc:type
           rdf:resource="http://purl.org/dc/dcmitype/StillImage" />
        <dc:title></dc:title>
      </cc:Work>
    </rdf:RDF>
  </metadata>
  <g
     inkscape:label="Layer 1"
     inkscape:groupmode="layer"
     id="layer1"
     transform="translate(-19.178659,-312.19987)">
    <path
       style="fill:none;stroke:#000000;stroke-opacity:1"
       d="m 37.234599,436.20984 c -7.130512,-1.59288 -14.30664,-4.0953 -16.163666,-5.63649 -1.655805,-1.3742 -1.930553,-24.37889 -0.303172,-25.38467 0.568239,-0.35119 4.280739,0.70943 8.25,2.35694 10.653721,4.42199 19.28833,6.439 27.716838,6.47455 11.607431,0.0489 16,-3.00632 16,-11.12889 0,-5.50887 -4.552383,-9.35634 -20.915564,-17.67688 -14.805526,-7.52848 -22.702066,-13.96174 -26.897769,-21.91345 -2.449576,-4.64243 -2.68479,-6.06249 -2.665395,-16.09177 0.01809,-9.3533 0.347756,-11.61624 2.202201,-15.11647 4.847948,-9.15042 12.528736,-15.1723 22.746516,-17.8337 8.556562,-2.2287 25.289092,-2.04114 34.794871,0.39003 9.79339,2.50473 17.73514,5.94004 17.73514,7.67158 0,1.69115 -6.86903,18.54252 -8.07854,19.81859 -0.53778,0.56738 -3.940131,-0.1347 -8.725292,-1.80046 -19.669658,-6.84722 -32.156644,-4.81026 -33.832858,5.51904 -0.927291,5.71423 3.241154,9.43889 20.428247,18.25341 17.148385,8.79467 23.880473,14.1934 27.896193,22.37107 2.45047,4.99018 2.812251,6.88471 2.812251,14.72691 0,11.32229 -2.098541,17.13789 -8.704701,24.12292 -5.327752,5.63332 -13.220497,9.7509 -21.815278,11.38087 -7.298341,1.3841 -25.278674,1.10558 -32.480022,-0.50313 z m 92.499991,0.0169 c -13.84514,-4.46552 -21.33672,-21.5278 -16.60255,-37.81278 4.05893,-13.96221 15.91195,-19.79019 43.35255,-21.3159 l 12.25,-0.68111 -0.004,-3.10387 c -0.005,-4.11063 -3.32576,-9.39129 -6.74672,-10.72845 -4.14469,-1.62005 -15.82744,-0.37622 -23.87053,2.54142 -3.91628,1.42073 -7.62376,2.58315 -8.23857,2.58315 -1.26458,0 -9.14018,-15.10711 -9.14018,-17.53283 0,-2.02962 8.31263,-5.71056 17.69741,-7.83663 8.92378,-2.02164 26.83833,-2.1297 34.06658,-0.20549 6.94898,1.84986 13.36867,5.70388 17.19674,10.32396 5.72094,6.90456 6.09432,10.04495 5.80246,48.80226 l -0.26319,34.94873 -9.42551,0 -9.42551,0 -1.9988,-5 c -1.09934,-2.75 -2.13347,-5.17561 -2.29806,-5.39024 -0.1646,-0.21463 -2.16857,1.29857 -4.45329,3.36267 -6.71115,6.06313 -11.89674,7.88285 -23.39883,8.21111 -6.72248,0.19186 -11.47488,-0.1903 -14.5,-1.166 z m 31.67744,-22.12606 c 5.06006,-3.77787 6.70273,-6.9982 7.1496,-14.01619 l 0.42046,-6.60315 -7.37375,0.69307 c -13.79573,1.29669 -18.77414,3.6729 -20.84568,9.94972 -1.44612,4.38177 -0.46171,8.09725 2.83431,10.69761 2.19194,1.72932 3.69186,2.01445 8.87685,1.68748 4.21871,-0.26604 7.11327,-1.04602 8.93821,-2.40854 z m 77.66231,22.23881 c -9.10666,-2.99081 -14.33404,-9.44008 -16.2626,-20.06397 -0.59243,-3.26351 -1.07715,-16.40356 -1.07715,-29.2001 l 0,-23.26643 -5.75,-0.29991 -5.75,-0.2999 -0.29585,-6.1781 -0.29585,-6.1781 6.98892,-4.15204 c 6.97316,-4.14269 6.99579,-4.17046 10.04111,-12.3219 4.4681,-11.95986 3.50123,-11.16986 13.67066,-11.16986 l 8.89101,0 0.28621,9.75 0.28621,9.75 12.46379,0 12.46379,0 0,10.5 0,10.5 -12.5,0 -12.5,0 0,23.06574 c 0,13.7117 0.41216,23.83586 1.01632,24.96475 0.55897,1.04445 2.70902,2.40615 4.77788,3.026 3.6302,1.08763 6.04397,0.85509 17.49088,-1.68503 l 2.78508,-0.61803 -0.28508,10.77465 -0.28508,10.77465 -4,1.45089 c -5.6888,2.06344 -26.79486,2.6388 -32.16025,0.87669 z m 243.16025,-0.0397 c -34.45079,-7.84847 -64.65374,-40.56519 -67.18288,-72.77445 -1.83208,-23.33206 10.61431,-41.6847 32.18288,-47.45479 7.81277,-2.09009 23.48646,-1.733 32.66731,0.74426 9.18564,2.47855 24.21417,9.7473 24.59231,11.89439 0.1453,0.825 -7.07332,11.16521 -15.60486,22.97825 -8.53155,11.81303 -15.69047,21.51767 -15.69047,22.65714 0,2.82612 2.40709,6.0789 5.62091,6.0789 2.35352,0 4.63652,-3.43176 18.48262,-22.71429 8.68858,-12.1 16.31392,-22 16.9452,-22 1.55401,0 12.69025,11.38367 16.82079,17.19453 15.99827,22.50642 18.05711,51.03554 4.92331,68.22189 -4.4541,5.82846 -11.11492,10.61333 -19.01791,13.66172 -7.26533,2.80243 -25.57732,3.59969 -34.73921,1.51245 z m 114.86195,-0.0169 c -19.24303,-4.39654 -32.90649,-18.46191 -38.01992,-39.13828 -2.42481,-9.80483 -2.39693,-33.49202 0.05,-42.43539 2.86014,-10.45384 8.04158,-19.22563 15.50068,-26.24152 7.676,-7.21988 14.91317,-11.04704 26.3674,-13.94357 11.51162,-2.91104 33.38502,-2.22204 45.58035,1.43577 12.08704,3.62533 11.99343,3.42273 7.06965,15.3017 -2.26778,5.47119 -4.41278,10.24641 -4.76666,10.61159 -0.35387,0.36518 -4.69341,-0.70442 -9.64341,-2.37689 -7.44309,-2.51481 -10.60048,-3.04249 -18.25186,-3.05033 -8.37142,-0.009 -9.86209,0.29094 -15.66444,3.14743 -7.61313,3.74793 -11.7754,8.19341 -15.98106,17.06845 -2.95556,6.23691 -3.10268,7.1401 -3.10268,19.04737 0,9.6724 0.42899,13.74414 1.89645,18 2.68439,7.78511 6.91965,13.5149 12.336,16.68909 3.95928,2.3203 6.0764,2.79759 13.93357,3.14123 5.09571,0.22287 10.86998,0.10411 12.83172,-0.26392 l 3.5668,-0.66913 -0.28227,-11.19864 -0.28227,-11.19863 -11.25,-0.28275 -11.25,-0.28275 0,-11.46725 0,-11.46725 25,0 25,0 0,32.02475 0,32.02475 -2.75,1.06011 c -12.62815,4.86809 -45.1446,7.37561 -57.88805,4.46406 z m 98.06789,0.40416 c -2.78859,-0.50029 -7.96359,-1.94018 -11.5,-3.19976 l -6.42984,-2.29014 -0.28213,-12.41184 c -0.15517,-6.82651 0.0714,-12.76537 0.5035,-13.19746 0.43209,-0.43209 5.05905,0.82218 10.28213,2.78728 11.19097,4.21041 23.77709,6.63655 29.773,5.73913 12.22868,-1.83029 16.02902,-12.89807 6.82696,-19.88227 -1.7069,-1.29551 -9.15366,-5.41515 -16.54836,-9.15476 -15.13073,-7.65184 -22.90935,-14.22553 -27.05961,-22.86801 -1.99965,-4.16407 -2.40897,-6.58828 -2.44828,-14.5 -0.0408,-8.22006 0.30576,-10.25267 2.57261,-15.08648 6.86897,-14.64737 19.70972,-20.60054 42.4919,-19.69992 10.14968,0.40123 13.35073,0.96839 21.88828,3.87818 7.13211,2.43078 10.09441,3.91883 10.32919,5.18867 0.45198,2.44458 -6.88889,20.71955 -8.32282,20.71955 -0.63584,0 -4.49738,-1.13966 -8.58122,-2.53257 -20.19561,-6.8883 -32.92515,-4.37078 -32.92515,6.51161 0,5.75104 3.37312,8.97584 15.7242,15.03277 20.88694,10.2429 30.41105,18.06721 33.68377,27.67213 1.78774,5.24671 2.11237,17.90291 0.59895,23.35058 -1.57306,5.66232 -6.52278,12.59218 -11.7047,16.38718 -8.10024,5.93223 -14.86581,7.74757 -30.30222,8.13069 -7.425,0.18429 -15.78157,-0.0743 -18.57016,-0.57456 z m -400.95839,-1.19593 c -0.26964,-0.70504 -0.37353,-28.2819 -0.23086,-61.2819 l 0.25941,-60 16.60802,-0.27353 c 12.51702,-0.20616 16.86092,0.0402 17.63469,1 0.56467,0.70044 11.69789,19.72353 24.74049,42.27353 13.0426,22.55 23.88488,41.17789 24.09395,41.3953 0.20907,0.21742 0.0932,-17.57946 -0.25746,-39.54862 -0.35068,-21.96916 -0.32904,-41.1733 0.0481,-42.67587 l 0.68568,-2.73194 12.22327,0.28057 12.22326,0.28056 0,61 0,61 -16.95237,0 -16.95237,0 -6.14198,-10.5 c -3.37809,-5.775 -14.38775,-24.9 -24.46591,-42.5 -10.07817,-17.6 -18.58572,-32.31539 -18.90566,-32.70087 -0.31994,-0.38548 -0.58171,18.73952 -0.58171,42.5 l 0,43.20087 -11.76914,0.2819 c -8.85909,0.2122 -11.89037,-0.0351 -12.25941,-1 z M 476.6872,377.01183 c -0.68108,-0.68108 -0.52404,-1.32465 -0.52404,-2.08493 0,-0.76028 8.41411,-12.25778 18.04325,-25.55 13.09486,-18.07635 17.20374,-23.63347 16.83212,-25.22772 -0.68087,-2.921 1.20435,-6.01877 3.16407,-7.60393 4.70498,-3.80572 10.53199,-2.4334 10.53199,3.94146 0,4.69217 -4.69217,6.70361 -8.51944,7.70553 -2.36639,0.61948 -5.18331,6.2753 -19.14767,25.65984 -17.17479,23.84109 -17.41166,26.12837 -20.38028,23.15975 z"
       id="path4259"
       inkscape:connector-curvature="0"
       sodipodi:nodetypes="sssssssssssssssssssssssssccscsssssscccscssssscsssssssscccccssscccccccccsssscccssssssssssssssssssssssscscssssssscccccccccccsscscssssssssssssssssssssccscssscsscccccccsssscscsssssssss" />
  </g>
</svg>
