<?xml version="1.0" encoding="UTF-8" standalone="no"?>
<svg
   xmlns:dc="http://purl.org/dc/elements/1.1/"
   xmlns:cc="http://creativecommons.org/ns#"
   xmlns:rdf="http://www.w3.org/1999/02/22-rdf-syntax-ns#"
   xmlns:svg="http://www.w3.org/2000/svg"
   xmlns="http://www.w3.org/2000/svg"
   xmlns:sodipodi="http://sodipodi.sourceforge.net/DTD/sodipodi-0.dtd"
   xmlns:inkscape="http://www.inkscape.org/namespaces/inkscape"
   width="111.892456055mm"
   height="112.193969727mm"
   viewBox="0 0 111.892456055 112.193969727"
   version="1.1"
   id="svg2"
   inkscape:version="0.48.4 r9939"
   sodipodi:docname="axis_side.svg">
  <metadata
     id="metadata11">
    <rdf:RDF>
      <cc:Work
         rdf:about="">
        <dc:format>image/svg+xml</dc:format>
        <dc:type
           rdf:resource="http://purl.org/dc/dcmitype/StillImage" />
        <dc:title />
      </cc:Work>
    </rdf:RDF>
  </metadata>
  <defs
     id="defs9" />
  <sodipodi:namedview
     pagecolor="#ffffff"
     bordercolor="#666666"
     borderopacity="1"
     objecttolerance="10"
     gridtolerance="10"
     guidetolerance="10"
     inkscape:pageopacity="0"
     inkscape:pageshadow="2"
     inkscape:window-width="980"
     inkscape:window-height="748"
     id="namedview7"
     showgrid="false"
     inkscape:zoom="1.315"
     inkscape:cx="173.18715"
     inkscape:cy="166.83929"
     inkscape:window-x="0"
     inkscape:window-y="0"
     inkscape:window-maximized="0"
     inkscape:current-layer="svg2"
     inkscape:document-units="mm" />
  <g
     transform="matrix(1,0,0,-1,159.14648,71.572383)"
     id="g10801" />
  <g
     transform="matrix(1,0,0,-1,159.14648,71.572383)"
     id="g10804" />
  <g
     transform="matrix(1,0,0,-1,159.14648,71.572383)"
     id="g10807" />
  <g
     transform="matrix(1,0,0,-1,159.14648,71.572383)"
     id="g10810" />
  <g
     transform="matrix(1,0,0,-1,159.14648,71.572383)"
     id="g10813" />
  <g
     transform="matrix(1,0,0,-1,159.14648,71.572383)"
     id="g10816" />
  <g
     transform="matrix(1,0,0,-1,159.14648,71.572383)"
     id="g10819" />
  <g
     transform="matrix(1,0,0,-1,159.14648,71.572383)"
     id="g10822" />
  <g
     transform="matrix(1,0,0,-1,159.14648,71.572383)"
     id="g10825" />
  <g
     transform="matrix(1,0,0,-1,159.14648,71.572383)"
     id="g10828" />
  <g
     transform="matrix(1,0,0,-1,159.14648,71.572383)"
     id="g10831" />
  <g
     transform="matrix(1,0,0,-1,159.14648,71.572383)"
     id="g10972" />
  <g
     transform="matrix(1,0,0,-1,159.14648,71.572383)"
     id="g10975" />
  <g
     transform="matrix(1,0,0,-1,159.14648,71.572383)"
     id="g11026" />
  <g
     transform="matrix(1,0,0,-1,159.14648,71.572383)"
     id="g11029" />
  <g
     transform="matrix(1,0,0,-1,159.14648,71.572383)"
     id="g11032" />
  <g
     transform="matrix(1,0,0,-1,159.14648,71.572383)"
     id="g11035" />
  <g
     transform="matrix(1,0,0,-1,159.14648,71.572383)"
     id="g11038" />
  <g
     transform="matrix(1,0,0,-1,159.14648,71.572383)"
     id="g11041" />
  <g
     transform="matrix(1,0,0,-1,159.14648,71.572383)"
     id="g11044" />
  <g
     transform="matrix(1,0,0,-1,159.14648,71.572383)"
     id="g11047" />
  <g
     transform="matrix(1,0,0,-1,159.14648,71.572383)"
     id="g11050" />
  <g
     transform="matrix(1,0,0,-1,159.14648,71.572383)"
     id="g11053" />
  <g
     transform="matrix(1,0,0,-1,159.14648,71.572383)"
     id="g11056" />
  <g
     transform="matrix(1,0,0,-1,159.14648,71.572383)"
     id="g11059" />
  <g
     transform="matrix(1,0,0,-1,159.14648,71.572383)"
     id="g11062" />
  <g
     transform="matrix(1,0,0,-1,159.14648,71.572383)"
     id="g11065" />
  <g
     transform="matrix(1,0,0,-1,159.14648,71.572383)"
     id="g11068" />
  <g
     transform="matrix(1,0,0,-1,159.14648,71.572383)"
     id="g11071" />
  <g
     transform="matrix(1,0,0,-1,159.14648,71.572383)"
     id="g11074" />
  <g
     transform="matrix(1,0,0,-1,159.14648,71.572383)"
     id="g11077" />
  <g
     transform="matrix(1,0,0,-1,159.14648,71.572383)"
     id="g11080" />
  <g
     transform="matrix(1,0,0,-1,159.14648,71.572383)"
     id="g11083" />
  <g
     transform="matrix(1,0,0,-1,159.14648,71.572383)"
     id="g11086" />
  <g
     transform="matrix(1,0,0,-1,159.14648,71.572383)"
     id="g11089" />
  <g
     transform="matrix(1,0,0,-1,159.14648,71.572383)"
     id="g11092" />
  <g
     transform="matrix(1,0,0,-1,159.14648,71.572383)"
     id="g11095" />
  <g
     transform="matrix(1,0,0,-1,159.14648,71.572383)"
     id="g11098" />
  <g
     transform="matrix(1,0,0,-1,159.14648,71.572383)"
     id="g11101" />
  <g
     transform="matrix(1,0,0,-1,159.14648,71.572383)"
     id="g11104" />
  <g
     transform="matrix(1,0,0,-1,159.14648,71.572383)"
     id="g11107" />
  <g
     transform="matrix(1,0,0,-1,159.14648,71.572383)"
     id="g11110" />
  <g
     transform="matrix(1,0,0,-1,159.14648,71.572383)"
     id="g11113" />
  <g
     transform="matrix(1,0,0,-1,159.14648,71.572383)"
     id="g11116" />
  <g
     transform="matrix(1,0,0,-1,159.14648,71.572383)"
     id="g11119" />
  <g
     transform="matrix(1,0,0,-1,159.14648,71.572383)"
     id="g11122" />
  <g
     transform="matrix(1,0,0,-1,159.14648,71.572383)"
     id="g11125" />
  <g
     transform="matrix(1,0,0,-1,159.14648,71.572383)"
     id="g11158" />
  <g
     transform="matrix(1,0,0,-1,159.14648,71.572383)"
     id="g11167"
     style="stroke:#ff0000;stroke-opacity:1;stroke-width:0.1;stroke-miterlimit:4;stroke-dasharray:none" />
  <g
     transform="matrix(1,0,0,-1,159.14648,71.572383)"
     id="g11194" />
  <g
     transform="matrix(1,0,0,-1,159.14648,71.572383)"
     id="g11197" />
  <g
     transform="matrix(1,0,0,-1,159.14648,71.572383)"
     id="g11200" />
  <g
     transform="matrix(1,0,0,-1,159.14648,71.572383)"
     id="g11203" />
  <g
     transform="matrix(1,0,0,-1,159.14648,71.572383)"
     id="g11206" />
  <g
     transform="matrix(1,0,0,-1,159.14648,71.572383)"
     id="g11209" />
  <g
     transform="matrix(1,0,0,-1,159.14648,71.572383)"
     id="g11212" />
  <g
     transform="matrix(1,0,0,-1,159.14648,71.572383)"
     id="g11215" />
  <g
     transform="matrix(1,0,0,-1,159.14648,71.572383)"
     id="g11221" />
  <g
     transform="matrix(1,0,0,-1,159.14648,71.572383)"
     id="g11224" />
  <g
     transform="matrix(1,0,0,-1,159.14648,71.572383)"
     id="g11227" />
  <g
     transform="matrix(1,0,0,-1,159.14648,71.572383)"
     id="g11230" />
  <g
     transform="matrix(1,0,0,-1,159.14648,71.572383)"
     id="g11233" />
  <g
     transform="matrix(1,0,0,-1,159.14648,71.572383)"
     id="g11236" />
  <g
     transform="matrix(1,0,0,-1,159.14648,71.572383)"
     id="g11242" />
  <g
     transform="matrix(1,0,0,-1,159.14648,71.572383)"
     id="g11245" />
  <g
     transform="matrix(1,0,0,-1,159.14648,71.572383)"
     id="g11248" />
  <g
     transform="matrix(1,0,0,-1,159.14648,71.572383)"
     id="g11251" />
  <g
     transform="matrix(1,0,0,-1,159.14648,71.572383)"
     id="g11254" />
  <g
     transform="matrix(1,0,0,-1,159.14648,71.572383)"
     id="g11257" />
  <g
     transform="matrix(1,0,0,-1,159.14648,71.572383)"
     id="g11260" />
  <g
     transform="matrix(1,0,0,-1,159.14648,71.572383)"
     id="g11263" />
  <g
     transform="matrix(1,0,0,-1,159.14648,71.572383)"
     id="g11266" />
  <g
     transform="matrix(1,0,0,-1,159.14648,71.572383)"
     id="g11269" />
  <g
     transform="matrix(1,0,0,-1,159.14648,71.572383)"
     id="g11272" />
  <g
     transform="matrix(1,0,0,-1,159.14648,71.572383)"
     id="g11275" />
  <g
     transform="matrix(1,0,0,-1,159.14648,71.572383)"
     id="g11278" />
  <g
     transform="matrix(1,0,0,-1,159.14648,71.572383)"
     id="g11281" />
  <g
     transform="matrix(1,0,0,-1,159.14648,71.572383)"
     id="g11284" />
  <g
     transform="matrix(1,0,0,-1,159.14648,71.572383)"
     id="g11287" />
  <g
     transform="matrix(1,0,0,-1,159.14648,71.572383)"
     id="g11290" />
  <g
     transform="matrix(1,0,0,-1,159.14648,71.572383)"
     id="g11293" />
  <g
     transform="matrix(1,0,0,-1,41.22446,70.9661)"
     id="g10720" />
  <g
     transform="matrix(1,0,0,-1,41.22446,70.9661)"
     id="g10729" />
  <g
     transform="matrix(1,0,0,-1,41.22446,70.9661)"
     id="g10732" />
  <g
     transform="matrix(1,0,0,-1,41.22446,70.9661)"
     id="g10735" />
  <g
     transform="matrix(1,0,0,-1,41.22446,70.9661)"
     id="g10738" />
  <g
     transform="matrix(1,0,0,-1,41.22446,70.713982)"
     id="g10741"
     style="stroke:#ff0000;stroke-width:0.10000000000000001;stroke-miterlimit:4;stroke-opacity:1;stroke-dasharray:none;fill:none" />
  <g
     transform="matrix(1,0,0,-1,41.22446,70.9661)"
     id="g10756" />
  <g
     transform="matrix(1,0,0,-1,41.22446,70.9661)"
     id="g10759" />
  <g
     transform="matrix(1,0,0,-1,41.22446,70.9661)"
     id="g10765" />
  <g
     transform="matrix(1,0,0,-1,41.22446,70.9661)"
     id="g10768" />
  <g
     transform="matrix(1,0,0,-1,41.22446,70.9661)"
     id="g10771" />
  <g
     transform="matrix(1,0,0,-1,41.22446,70.9661)"
     id="g10789" />
  <g
     transform="matrix(1,0,0,-1,41.22446,70.9661)"
     id="g10792" />
  <g
     transform="matrix(1,0,0,-1,41.22446,70.9661)"
     id="g10795" />
  <g
     transform="matrix(1,0,0,-1,41.22446,70.9661)"
     id="g10798" />
  <g
     transform="matrix(1,0,0,-1,41.85475,71.00812)"
     id="g10840"
     style="stroke:#ff0000;stroke-width:0.10000000000000001;stroke-miterlimit:4;stroke-opacity:1;stroke-dasharray:none;fill:none" />
  <g
     transform="matrix(1,0,0,-1,41.22446,70.9661)"
     id="g10870" />
  <g
     transform="matrix(1,0,0,-1,40.84628,71.00812)"
     id="g10918"
     style="stroke:#ff0000;stroke-width:0.10000000000000001;stroke-miterlimit:4;stroke-opacity:1;stroke-dasharray:none;fill:none" />
  <g
     transform="matrix(1,0,0,-1,41.22446,71.050139)"
     id="g10930"
     style="stroke:#ff0000;stroke-width:0.09990667;stroke-miterlimit:4;stroke-opacity:1;stroke-dasharray:none;fill:none" />
  <g
     transform="matrix(1,0,0,-1,41.22446,70.9661)"
     id="g10933" />
  <g
     transform="matrix(1,0,0,-1,41.22446,70.9661)"
     id="g11023"
     style="stroke:#ff0000;stroke-width:0.10000000000000001;stroke-miterlimit:4;stroke-opacity:1;stroke-dasharray:none;fill:none" />
  <g
     transform="matrix(1,0,0,-1,41.22446,70.9661)"
     id="g11137"
     style="stroke:#ff0000;stroke-width:0.10000000000000001;stroke-miterlimit:4;stroke-opacity:1;stroke-dasharray:none;fill:none" />
  <g
     transform="matrix(1,0,0,-1,41.22446,70.9661)"
     id="g11152"
     style="stroke:#ff0000;stroke-width:0.10000000000000001;stroke-miterlimit:4;stroke-opacity:1;stroke-dasharray:none;fill:none" />
  <g
     transform="matrix(1,0,0,-1,41.22446,70.9661)"
     id="g11407" />
  <g
     transform="matrix(1,0,0,-1,41.22446,70.9661)"
     id="g11410" />
  <g
     transform="matrix(1,0,0,-1,41.22446,70.9661)"
     id="g11413" />
  <g
     transform="matrix(1,0,0,-1,41.22446,70.9661)"
     id="g11452" />
  <g
     transform="matrix(1,0,0,-1,41.22446,70.9661)"
     id="g11458" />
  <g
     transform="matrix(1,0,0,-1,41.22446,70.9661)"
     id="g11461" />
  <g
     transform="matrix(1,0,0,-1,41.22446,70.9661)"
     id="g11464" />
  <g
     transform="matrix(1,0,0,-1,41.22446,70.9661)"
     id="g11467" />
  <g
     transform="matrix(1,0,0,-1,41.22446,70.9661)"
     id="g11473" />
  <g
     transform="matrix(1,0,0,-1,41.22446,70.9661)"
     id="g11476" />
  <g
     transform="matrix(1,0,0,-1,41.22446,70.9661)"
     id="g11479" />
  <g
     transform="matrix(1,0,0,-1,41.22446,70.9661)"
     id="g11482" />
  <g
     transform="matrix(1,0,0,-1,41.22446,70.9661)"
     id="g11485" />
  <g
     transform="matrix(1,0,0,-1,41.22446,70.9661)"
     id="g11488" />
  <g
     transform="matrix(1,0,0,-1,41.22446,70.9661)"
     id="g10726"
     style="fill:none;stroke-width:0.254;stroke-miterlimit:4;stroke-dasharray:none">
    <path
       inkscape:connector-curvature="0"
       id="Face098"
       d="m -40,-40 80,0 0,35.3553391 C 50.056598,5.4119368 60.695626,16.050963 69.698486,25.053823 l 0,44.946177 -34.644661,0 0,-10.301514 C 25.15433,49.798991 15.254834,39.899495 5.3553391,30 L -6.4034605,41.758801 c 0,9.413733 0,18.827466 0,28.241199 L -40,70 z"
       style="fill:none;stroke:#191919;stroke-width:0.254;stroke-miterlimit:4;stroke-dasharray:none"
       sodipodi:nodetypes="cccccccccccc" />
  </g>
  <g
     transform="matrix(1,0,0,-1,41.22446,70.9661)"
     id="g10927" />
  <path
     sodipodi:type="arc"
     style="fill:none;stroke:#000000;stroke-width:0.8021781;stroke-miterlimit:4;stroke-opacity:1;stroke-dasharray:none"
     id="path13433"
     sodipodi:cx="551.24664"
     sodipodi:cy="254.35674"
     sodipodi:rx="51.797813"
     sodipodi:ry="50.534451"
     d="m 603.04446,254.35674 a 51.797813,50.534451 0 1 1 -103.59563,0 51.797813,50.534451 0 1 1 103.59563,0 z"
     transform="matrix(0.31275264,0,0,0.32057146,-131.26271,-10.640834)" />
  <path
     style="fill:none;stroke:#ff0000;stroke-width:0.28222221px;stroke-linecap:butt;stroke-linejoin:miter;stroke-opacity:1"
     d="m 1.2877059,55.427597 19.9057881,0"
     id="path3906"
     inkscape:connector-curvature="0" />
  <path
     style="fill:none;stroke:#ff0000;stroke-width:0.28222221px;stroke-linecap:butt;stroke-linejoin:miter;stroke-opacity:1"
     d="m 1.3413604,86.439851 19.8521336,0"
     id="path3908"
     inkscape:connector-curvature="0" />
  <path
     style="fill:none;stroke:#ff0000;stroke-width:0.28222221px;stroke-linecap:butt;stroke-linejoin:miter;stroke-opacity:1"
     d="m 11.160118,110.79895 0,-19.798476"
     id="path3910"
     inkscape:connector-curvature="0" />
  <path
     style="fill:none;stroke:#ff0000;stroke-width:0.28222221px;stroke-linecap:butt;stroke-linejoin:miter;stroke-opacity:1"
     d="m 71.253062,110.85261 0,-19.905789"
     id="path3912"
     inkscape:connector-curvature="0" />
  <path
     style="fill:none;stroke:#ff0000;stroke-width:0.28222221px;stroke-linecap:butt;stroke-linejoin:miter;stroke-opacity:1"
     d="m 101.35319,1.1293307 0,19.7984793"
     id="path3914"
     inkscape:connector-curvature="0" />
  <path
     style="fill:none;stroke:#ff0000;stroke-width:0.28222221px;stroke-linecap:butt;stroke-linejoin:miter;stroke-opacity:1"
     d="m 74.58886,13.020376 34.44898,34.524856"
     id="path3916"
     inkscape:connector-curvature="0" />
  <path
     style="fill:none;stroke:#ff0000;stroke-width:0.28222221px;stroke-linecap:butt;stroke-linejoin:miter;stroke-opacity:1"
     d="M 70.263768,17.269589 104.71274,51.794443"
     id="path3918"
     inkscape:connector-curvature="0" />
  <path
     style="fill:none;stroke:#ff0000;stroke-width:0.28222221px;stroke-linecap:butt;stroke-linejoin:miter;stroke-opacity:1"
     d="M 52.584008,34.949349 87.184743,69.398325"
     id="path3920"
     inkscape:connector-curvature="0" />
  <path
     style="fill:none;stroke:#ff0000;stroke-width:0.28222221px;stroke-linecap:butt;stroke-linejoin:miter;stroke-opacity:1"
     d="M 82.935529,73.799295 48.410675,39.198563"
     id="path3922"
     inkscape:connector-curvature="0" />
  <path
     style="fill:none;stroke:#ff0000;stroke-width:0.28222221px;stroke-linecap:butt;stroke-linejoin:miter;stroke-opacity:1"
     d="m 11.533578,1.1074045 0,19.7284885"
     id="path3924"
     inkscape:connector-curvature="0" />
  <rect
     style="fill:none;stroke:#0000ff;stroke-width:0.23910023000000000;stroke-miterlimit:4;stroke-opacity:1;stroke-dasharray:none"
     id="rect3114"
     width="7.3107829"
     height="3.5116425"
     x="7.8575253"
     y="7.7101269" />
  <rect
     style="fill:none;stroke:#0000ff;stroke-width:0.23910024999999999;stroke-miterlimit:4;stroke-opacity:1;stroke-dasharray:none"
     id="rect3114-1"
     width="7.3107829"
     height="3.5116425"
     x="97.718689"
     y="7.887948" />
  <rect
     style="fill:none;stroke:#0000ff;stroke-width:0.23910024999999999;stroke-miterlimit:4;stroke-opacity:1;stroke-dasharray:none"
     id="rect3114-7"
     width="7.3107829"
     height="3.5116425"
     x="67.544441"
     y="100.46573" />
  <rect
     style="fill:none;stroke:#0000ff;stroke-width:0.23910024999999999;stroke-miterlimit:4;stroke-opacity:1;stroke-dasharray:none"
     id="rect3114-4"
     width="7.3107829"
     height="3.5116425"
     x="7.5222936"
     y="100.46573" />
</svg>
