<?xml version="1.0" encoding="UTF-8" standalone="no"?>
<svg
   xmlns:dc="http://purl.org/dc/elements/1.1/"
   xmlns:cc="http://creativecommons.org/ns#"
   xmlns:rdf="http://www.w3.org/1999/02/22-rdf-syntax-ns#"
   xmlns:svg="http://www.w3.org/2000/svg"
   xmlns="http://www.w3.org/2000/svg"
   xmlns:sodipodi="http://sodipodi.sourceforge.net/DTD/sodipodi-0.dtd"
   xmlns:inkscape="http://www.inkscape.org/namespaces/inkscape"
   width="40.8mm"
   height="40.8mm"
   viewBox="0 0 40.8 40.8"
   version="1.1"
   id="svg2"
   inkscape:version="0.48.4 r9939"
   sodipodi:docname="axis_bearing_holder_cup1.svg">
  <metadata
     id="metadata11">
    <rdf:RDF>
      <cc:Work
         rdf:about="">
        <dc:format>image/svg+xml</dc:format>
        <dc:type
           rdf:resource="http://purl.org/dc/dcmitype/StillImage" />
        <dc:title></dc:title>
      </cc:Work>
    </rdf:RDF>
  </metadata>
  <defs
     id="defs9" />
  <sodipodi:namedview
     pagecolor="#ffffff"
     bordercolor="#666666"
     borderopacity="1"
     objecttolerance="10"
     gridtolerance="10"
     guidetolerance="10"
     inkscape:pageopacity="0"
     inkscape:pageshadow="2"
     inkscape:window-width="1091"
     inkscape:window-height="778"
     id="namedview7"
     showgrid="false"
     inkscape:zoom="3.2649238"
     inkscape:cx="76.707083"
     inkscape:cy="64.685363"
     inkscape:window-x="0"
     inkscape:window-y="0"
     inkscape:window-maximized="0"
     inkscape:current-layer="svg2" />
  <g
     transform="translate(20.4,20.4) scale(1,-1)"
     id="g4">
    <path
       id="Face016"
       d="M 20.0 -20.0 L 20.0 20.0 L -20.0 20.0 L -20.0 -20.0 L -7.0 -20.0 L -7.0 -15.6692228317 L 7.0 -15.6692228317 L 7.0 -20.0 L 20.0 -20.0 Z M -7.07106781006 7.07106781006 L -7.6040596962 6.49448060989 L -8.09016990662 5.87785243988 L -8.52640151978 5.22498559952 L -8.91006565094 4.53990507126 L -9.23879528046 3.82683444023 L -9.51056480408 3.09016990662 L -9.7236995697 2.33445358276 L -9.87688350677 1.56434464455 L -9.9691734314 0.784590959549 L -10.0 -7.6571371856e-15 L -9.9691734314 -0.784590959549 L -9.87688350677 -1.56434464455 L -9.7236995697 -2.33445358276 L -9.51056480408 -3.09016990662 L -9.23879528046 -3.82683444023 L -8.91006565094 -4.53990507126 L -8.52640151978 -5.22498559952 L -8.09016990662 -5.87785243988 L -7.6040596962 -6.49448060989 L -7.07106781006 -7.07106781006 L -6.49448060989 -7.6040596962 L -5.87785243988 -8.09016990662 L -5.22498559952 -8.52640151978 L -4.53990507126 -8.91006565094 L -3.82683444023 -9.23879528046 L -3.09016990662 -9.51056480408 L -2.33445358276 -9.7236995697 L -1.56434464455 -9.87688350677 L -0.784590959549 -9.9691734314 L 7.04481410341e-15 -10.0 L 0.784590959549 -9.9691734314 L 1.56434464455 -9.87688350677 L 2.33445358276 -9.7236995697 L 3.09016990662 -9.51056480408 L 3.82683444023 -9.23879528046 L 4.53990507126 -8.91006565094 L 5.22498559952 -8.52640151978 L 5.87785243988 -8.09016990662 L 6.49448060989 -7.6040596962 L 7.07106781006 -7.07106781006 L 7.6040596962 -6.49448060989 L 8.09016990662 -5.87785243988 L 8.52640151978 -5.22498559952 L 8.91006565094 -4.53990507126 L 9.23879528046 -3.82683444023 L 9.51056480408 -3.09016990662 L 9.7236995697 -2.33445358276 L 9.87688350677 -1.56434464455 L 9.9691734314 -0.784590959549 L 10.0 0.0 L 9.9691734314 0.784590959549 L 9.87688350677 1.56434464455 L 9.7236995697 2.33445358276 L 9.51056480408 3.09016990662 L 9.23879528046 3.82683444023 L 8.91006565094 4.53990507126 L 8.52640151978 5.22498559952 L 8.09016990662 5.87785243988 L 7.6040596962 6.49448060989 L 7.07106781006 7.07106781006 L 6.49448060989 7.6040596962 L 5.87785243988 8.09016990662 L 5.22498559952 8.52640151978 L 4.53990507126 8.91006565094 L 3.82683444023 9.23879528046 L 3.09016990662 9.51056480408 L 2.33445358276 9.7236995697 L 1.56434464455 9.87688350677 L 0.784590959549 9.9691734314 L -6.04901464205e-15 10.0 L -0.784590959549 9.9691734314 L -1.56434464455 9.87688350677 L -2.33445358276 9.7236995697 L -3.09016990662 9.51056480408 L -3.82683444023 9.23879528046 L -4.53990507126 8.91006565094 L -5.22498559952 8.52640151978 L -5.87785243988 8.09016990662 L -6.49448060989 7.6040596962 L -7.07106781006 7.07106781006 Z M -14.1878566742 14.2678155899 L -13.9226484299 14.6328430176 L -13.7565498352 15.0523586273 L -13.6999998093 15.5 L -13.7565498352 15.9476413727 L -13.9226484299 16.3671569824 L -14.1878566742 16.7321853638 L -14.5355119705 17.0197906494 L -14.943769455 17.2119026184 L -15.3869771957 17.2964477539 L -15.8372859955 17.2681179047 L -16.2664031982 17.1286888123 L -16.6473636627 16.8869247437 L -16.9562301636 16.558013916 L -17.1735973358 16.1626243591 L -17.2858066559 15.7256002426 L -17.2858066559 15.2743997574 L -17.1735973358 14.8373756409 L -16.9562301636 14.441986084 L -16.6473636627 14.11307621 L -16.2664031982 13.8713111877 L -15.8372859955 13.731883049 L -15.3869771957 13.7035522461 L -14.943769455 13.7880983353 L -14.5355119705 13.9802093506 L -14.1878566742 14.2678155899 Z M -16.9562301636 -14.441986084 L -17.1735973358 -14.8373756409 L -17.2858066559 -15.2743997574 L -17.2858066559 -15.7256002426 L -17.1735973358 -16.1626243591 L -16.9562301636 -16.558013916 L -16.6473636627 -16.8869247437 L -16.2664031982 -17.1286888123 L -15.8372859955 -17.2681179047 L -15.3869771957 -17.2964477539 L -14.943769455 -17.2119026184 L -14.5355119705 -17.0197906494 L -14.1878566742 -16.7321853638 L -13.9226484299 -16.3671569824 L -13.7565498352 -15.9476413727 L -13.6999998093 -15.5 L -13.7565498352 -15.0523586273 L -13.9226484299 -14.6328430176 L -14.1878566742 -14.2678155899 L -14.5355119705 -13.9802093506 L -14.943769455 -13.7880983353 L -15.3869771957 -13.7035522461 L -15.8372859955 -13.731883049 L -16.2664031982 -13.8713111877 L -16.6473636627 -14.11307621 L -16.9562301636 -14.441986084 Z M 14.0437698364 16.558013916 L 13.8264026642 16.1626243591 L 13.7141933441 15.7256002426 L 13.7141933441 15.2743997574 L 13.8264026642 14.8373756409 L 14.0437698364 14.441986084 L 14.352637291 14.11307621 L 14.7335968018 13.8713111877 L 15.1627140045 13.731883049 L 15.6130228043 13.7035522461 L 16.056230545 13.7880983353 L 16.4644889832 13.9802093506 L 16.8121433258 14.2678155899 L 17.0773525238 14.6328430176 L 17.2434501648 15.0523586273 L 17.2999992371 15.5 L 17.2434501648 15.9476413727 L 17.0773525238 16.3671569824 L 16.8121433258 16.7321853638 L 16.4644889832 17.0197906494 L 16.056230545 17.2119026184 L 15.6130228043 17.2964477539 L 15.1627140045 17.2681179047 L 14.7335968018 17.1286888123 L 14.352637291 16.8869247437 L 14.0437698364 16.558013916 Z M 17.0773525238 -14.6328430176 L 16.8121433258 -14.2678155899 L 16.4644889832 -13.9802093506 L 16.056230545 -13.7880983353 L 15.6130228043 -13.7035522461 L 15.1627140045 -13.731883049 L 14.7335968018 -13.8713111877 L 14.352637291 -14.11307621 L 14.0437698364 -14.441986084 L 13.8264026642 -14.8373756409 L 13.7141933441 -15.2743997574 L 13.7141933441 -15.7256002426 L 13.8264026642 -16.1626243591 L 14.0437698364 -16.558013916 L 14.352637291 -16.8869247437 L 14.7335968018 -17.1286888123 L 15.1627140045 -17.2681179047 L 15.6130228043 -17.2964477539 L 16.056230545 -17.2119026184 L 16.4644889832 -17.0197906494 L 16.8121433258 -16.7321853638 L 17.0773525238 -16.3671569824 L 17.2434501648 -15.9476413727 L 17.2999992371 -15.5 L 17.2434501648 -15.0523586273 L 17.0773525238 -14.6328430176 Z "
       style="stroke-width:0.35;stroke-miterlimit:4;stroke-dasharray:none;fill:#cccccc;fill-rule: evenodd "
       stroke-width="0.35 px"
       stroke="#191919" />
  </g>
  <g
     id="g2990"
     transform="matrix(1,0,0,-1,20.4,20.400001)">
    <path
       style="fill:none;fill-rule:evenodd;stroke:#ff1919;stroke-width:0.34999998999999998;stroke-miterlimit:4;stroke-opacity:1;stroke-dasharray:none"
       d="m 7,-11.424475 -14,0 M 11.05,0 11.019102,-0.82576752 10.92658,-1.646917 10.772953,-2.4588563 10.559079,-3.2570448 10.286155,-4.0370183 9.9557056,-4.7944155 9.569581,-5.5250001 9.1299381,-6.2246866 8.6392384,-6.8895621 8.1002235,-7.5159087 7.5159087,-8.1002235 6.8895621,-8.6392384 6.2246866,-9.1299381 5.5250001,-9.569581 4.7944155,-9.9557056 4.0370183,-10.286155 3.2570448,-10.559079 2.4588563,-10.772953 1.646917,-10.92658 0.82576752,-11.019102 0,-11.05 l -0.82576752,0.0309 -0.82114948,0.09252 -0.8119393,0.153627 -0.7981885,0.213874 -0.7799735,0.272924 -0.7573972,0.3304494 -0.7305846,0.3861246 -0.6996865,0.4396429 -0.6648755,0.4906997 -0.6263466,0.5390149 -0.5843148,0.5843148 -0.5390149,0.6263466 -0.4906997,0.6648755 -0.4396429,0.6996865 -0.3861246,0.7305846 -0.3304494,0.7573972 -0.272924,0.7799735 -0.213874,0.7981885 -0.153627,0.8119393 -0.09252,0.82114948 L -11.05,0 l 0.0309,0.82576752 0.09252,0.82114948 0.153627,0.8119393 0.213874,0.7981885 0.272924,0.7799735 0.3304494,0.7573972 0.3861246,0.7305846 0.4396429,0.6996865 0.4906997,0.6648755 0.5390149,0.6263466 0.5843148,0.5843148 0.6263466,0.5390149 0.6648755,0.4906997 0.6996865,0.4396429 0.7305846,0.3861246 0.7573972,0.3304494 0.7799735,0.272924 0.7981885,0.213874 0.8119393,0.153627 0.82114948,0.09252 L 0,11.05 0.82576752,11.019102 1.646917,10.92658 2.4588563,10.772953 3.2570448,10.559079 4.0370183,10.286155 4.7944155,9.9557056 5.5250001,9.569581 6.2246866,9.1299381 6.8895621,8.6392384 7.5159087,8.1002235 8.1002235,7.5159087 8.6392384,6.8895621 9.1299381,6.2246866 9.569581,5.5250001 9.9557056,4.7944155 10.286155,4.0370183 10.559079,3.2570448 10.772953,2.4588563 10.92658,1.646917 11.019102,0.82576752 z"
       id="Face059"
       inkscape:connector-curvature="0"
       sodipodi:nodetypes="ccccccccccccccccccccccccccccccccccccccccccccccccccccccccccccccccccccccccccccccccccccccc" />
  </g>
</svg>
