<?xml version="1.0"?>
<!DOCTYPE svg PUBLIC "-//W3C//DTD SVG 1.1//EN" "http://www.w3.org/Graphics/SVG/1.1/DTD/svg11.dtd">
<svg width="42.8322699532mm" height="62.7441910818mm" viewBox="0 0 42.8322699532 62.7441910818" xmlns="http://www.w3.org/2000/svg" version="1.1">
<g transform="translate(0.416133732349,62.3242668666) scale(1,-1)">
<path id="Face1197" d="M 20.7395267487 0.0227876007557 L 20.86926651 0.00570714473724 L 21.0 0.0 L 21.13073349 0.00570714473724 L 21.260471344 0.0227876007557 L 21.3882293701 0.0511109828949 L 21.5130290985 0.0904612243176 L 21.6339263916 0.140536576509 L 21.75 0.200960785151 L 21.8603649139 0.271271914244 L 21.9641819 0.350933521986 L 22.0606613159 0.439338386059 L 22.1490650177 0.535815954208 L 22.2287273407 0.639636039734 L 22.2990379333 0.749997794628 L 22.3594608307 0.866070389748 L 22.409538269 0.986967206001 L 22.4488887787 1.11177194118 L 22.4772109985 1.23952698708 L 22.4942913055 1.36926400661 L 22.4999980927 1.49999928474 L 22.4999980927 10.6104030609 L 22.5153846741 11.0398082733 L 22.5614624023 11.4670114517 L 22.6379947662 11.8898210526 L 22.7445926666 12.3060684204 L 22.8807048798 12.7136201859 L 23.0456352234 13.1103858948 L 23.2385406494 13.4943294525 L 23.4584255219 13.863483429 L 23.7041683197 14.2159557343 L 23.9745063782 14.5499353409 L 24.2680530548 14.8637104034 L 24.5833015442 15.1556749344 L 24.9186401367 15.4243278503 L 25.2723426819 15.6682920456 L 25.6425991058 15.8863182068 L 26.0275096893 16.0772857666 L 26.4251003265 16.2402172089 L 26.8333339691 16.3742752075 L 27.6050987244 16.6136207581 L 28.3670864105 16.8824768066 L 29.1181697845 17.1804504395 L 29.8572311401 17.5070972443 L 30.5831813812 17.8619346619 L 31.2949409485 18.244436264 L 31.9914588928 18.6540355682 L 32.6717033386 19.0901279449 L 33.3346672058 19.552066803 L 33.9793701172 20.0391674042 L 34.6048583984 20.5507106781 L 35.2102050781 21.0859375 L 35.7945098877 21.6440563202 L 36.3569145203 22.2242393494 L 36.8965797424 22.8256282806 L 37.4127120972 23.4473361969 L 37.9045448303 24.0884380341 L 38.37134552 24.7479858398 L 38.8124313354 25.4250049591 L 39.2271461487 26.1184902191 L 39.6148757935 26.8274173737 L 39.9750442505 27.5507354736 L 40.3071212769 28.2873725891 L 40.6106109619 29.0362434387 L 40.8850669861 29.7962322235 L 41.1300849915 30.5662155151 L 41.3452987671 31.3450584412 L 41.5303878784 32.1315994263 L 41.6850852966 32.9246826172 L 41.8091583252 33.7231292725 L 41.9024238586 34.5257568359 L 41.9647407532 35.3313789368 L 41.9960174561 36.1388015747 L 41.9962120056 36.9468307495 L 41.9653167725 37.7542686462 L 41.9033851624 38.5599212646 L 41.8105049133 39.3625946045 L 41.6868133545 40.1610984802 L 41.5324935913 40.9542541504 L 41.3477783203 41.7408866882 L 41.132938385 42.5198287964 L 40.8882865906 43.289932251 L 40.6141967773 44.0500526428 L 40.3110618591 44.7990684509 L 39.9793395996 45.535861969 L 39.6195144653 46.259349823 L 39.2321243286 46.9684638977 L 38.817741394 47.662147522 L 38.3769798279 48.3393745422 L 37.9104919434 48.9991455078 L 37.4189605713 49.6404838562 L 36.9031295776 50.2624359131 L 36.3637504578 50.8640861511 L 35.8016242981 51.4445381165 L 35.2175827026 52.0029335022 L 34.6124954224 52.5384483337 L 33.9872550964 53.0502891541 L 33.3427810669 53.5377006531 L 32.6800346375 53.9999542236 L 31.9999980927 54.4363708496 L 31.9999980927 59.9043426514 L 31.9923915863 60.0786514282 L 31.9696140289 60.2516365051 L 31.9318504333 60.4219818115 L 31.8793849945 60.5883827209 L 31.8126163483 60.7495765686 L 31.7320518494 60.9043388367 L 31.6383018494 61.0514945984 L 31.532087326 61.1899185181 L 31.4142150879 61.3185539246 L 31.2855758667 61.4364280701 L 31.147151947 61.5426445007 L 31.0 61.636390686 L 30.8452358246 61.7169570923 L 30.6840381622 61.7837257385 L 30.5176372528 61.8361930847 L 30.3472957611 61.8739585876 L 30.1743106842 61.8967285156 L 30.0 61.9043426514 L 26.0 61.9043426514 L 26.0 51.9043426514 L 26.6784439087 51.6666183472 L 27.3456382751 51.3989334106 L 28.0002574921 51.1018257141 L 28.6410083771 50.7758827209 L 29.2666187286 50.4217453003 L 29.8758487701 50.0401191711 L 30.4674911499 49.6317558289 L 31.0403747559 49.197467804 L 31.5933628082 48.738117218 L 32.1253623962 48.254611969 L 32.6353187561 47.7479095459 L 33.1222190857 47.2190170288 L 33.5851020813 46.6689796448 L 34.0230484009 46.0988883972 L 34.4351882935 45.5098724365 L 34.8207092285 44.9030990601 L 35.1788444519 44.2797698975 L 35.5088844299 43.6411209106 L 35.8101768494 42.9884109497 L 36.0821266174 42.3229484558 L 36.3241882324 41.6460380554 L 36.5358886719 40.9590263367 L 36.7168045044 40.2632751465 L 36.8665809631 39.5601615906 L 36.9849128723 38.8510818481 L 37.0715789795 38.1374359131 L 37.1263999939 37.4206428528 L 37.1492652893 36.7021141052 L 37.1401290894 35.9832839966 L 37.0990142822 35.2655715942 L 37.0260047913 34.550403595 L 36.9212379456 33.8391876221 L 36.7849235535 33.1333427429 L 36.6173324585 32.434261322 L 36.4187965393 31.7433280945 L 36.1897125244 31.061920166 L 35.9305267334 30.3913803101 L 35.6417579651 29.7330379486 L 35.3239822388 29.0881996155 L 34.9778213501 28.4581413269 L 34.6039619446 27.8441123962 L 34.2031478882 27.2473278046 L 33.7761802673 26.6689739227 L 33.3238868713 26.1101913452 L 32.8471794128 25.5720939636 L 32.3470001221 25.0557403564 L 31.8243350983 24.5621604919 L 31.2802238464 24.0923271179 L 30.7157421112 23.6471748352 L 30.1320095062 23.2275829315 L 29.5301818848 22.8343868256 L 28.9114532471 22.4683609009 L 28.2770462036 22.1302318573 L 27.6282234192 21.8206710815 L 26.9662666321 21.5402908325 L 26.2924861908 21.2896461487 L 25.6082191467 21.0692367554 L 24.9148235321 20.8794956207 L 24.2136707306 20.7208003998 L 23.5061473846 20.5934638977 L 22.7936611176 20.4977416992 L 22.0776195526 20.4338207245 L 21.3594436646 20.4018306732 L 20.6405563354 20.4018306732 L 19.92237854 20.4338207245 L 19.2063369751 20.4977416992 L 18.493850708 20.5934638977 L 17.7863292694 20.7208003998 L 17.0851764679 20.8794956207 L 16.3917808533 21.0692367554 L 15.7075128555 21.2896461487 L 15.0337343216 21.5402908325 L 14.3717765808 21.8206710815 L 13.7229528427 22.1302318573 L 13.0885477066 22.4683609009 L 12.4698181152 22.8343868256 L 11.8679904938 23.2275829315 L 11.2842578888 23.6471748352 L 10.7197761536 24.0923271179 L 10.1756639481 24.5621604919 L 9.65299892426 25.0557403564 L 9.15281772614 25.5720939636 L 8.67611122131 26.1101913452 L 8.22382259369 26.6689739227 L 7.79684925079 27.2473278046 L 7.39603662491 27.8441123962 L 7.02217960358 28.4581413269 L 6.67601919174 29.0881996155 L 6.35823965073 29.7330379486 L 6.06947278976 30.3913803101 L 5.8102889061 31.061920166 L 5.58120298386 31.7433280945 L 5.38266706467 32.434261322 L 5.21507692337 33.1333427429 L 5.07876300812 33.8391876221 L 4.97399663925 34.550403595 L 4.90098428726 35.2655715942 L 4.85987043381 35.9832839966 L 4.85073566437 36.7021141052 L 4.87360191345 37.4206428528 L 4.92842102051 38.1374359131 L 5.0150847435 38.8510818481 L 5.13341999054 39.5601615906 L 5.28319549561 40.2632751465 L 5.46411132812 40.9590263367 L 5.67581129074 41.6460380554 L 5.91787433624 42.3229484558 L 6.18982219696 42.9884109497 L 6.49111509323 43.6411209106 L 6.8211555481 44.2797698975 L 7.17929077148 44.9030990601 L 7.56481218338 45.5098724365 L 7.97695302963 46.0988883972 L 8.4148979187 46.6689796448 L 8.87777900696 47.2190170288 L 9.36468029022 47.7479095459 L 9.87463665009 48.254611969 L 10.4066352844 48.738117218 L 10.9596252441 49.197467804 L 11.5325088501 49.6317558289 L 12.1241521835 50.0401191711 L 12.733382225 50.4217453003 L 13.3589916229 50.7758827209 L 13.9997415543 51.1018257141 L 14.6543607712 51.3989334106 L 15.321554184 51.6666183472 L 15.9999990463 51.9043426514 L 15.9999990463 61.9043426514 L 12.0 61.9043426514 L 11.8256883621 61.8967285156 L 11.6527032852 61.8739585876 L 11.4823617935 61.8361930847 L 11.3159599304 61.7837257385 L 11.1547632217 61.7169570923 L 11.0 61.636390686 L 10.8528470993 61.5426445007 L 10.714425087 61.4364280701 L 10.5857858658 61.3185539246 L 10.4679107666 61.1899185181 L 10.3616952896 61.0514945984 L 10.2679491043 60.9043388367 L 10.1873836517 60.7495765686 L 10.1206140518 60.5883827209 L 10.068148613 60.4219818115 L 10.0303840637 60.2516365051 L 10.007610321 60.0786514282 L 10.0 59.9043426514 L 10.0 54.4363708496 L 9.31996250153 53.9999542236 L 8.65721797943 53.5377006531 L 8.01274776459 53.0502891541 L 7.3875041008 52.5384483337 L 6.78241539001 52.0029335022 L 6.1983757019 51.4445381165 L 5.63624954224 50.8640861511 L 5.09686946869 50.2624359131 L 4.58103609085 49.6404838562 L 4.08950996399 48.9991455078 L 3.6230199337 48.3393745422 L 3.18225836754 47.662147522 L 2.76787567139 46.9684638977 L 2.38048481941 46.259349823 L 2.02066254616 45.535861969 L 1.68893861771 44.7990684509 L 1.38580429554 44.0500526428 L 1.11171042919 43.289932251 L 0.867061316967 42.5198287964 L 0.652220129967 41.7408866882 L 0.467503428459 40.9542541504 L 0.313185155392 40.1610984802 L 0.189494341612 39.3625946045 L 0.0966154038906 38.5599212646 L 0.0346824526787 37.7542686462 L 0.00379048287868 36.9468307495 L 0.00398419797421 36.1388015747 L 0.0352617353201 35.3313789368 L 0.0975783914328 34.5257568359 L 0.190841034055 33.7231292725 L 0.31491369009 32.9246826172 L 0.469610095024 32.1315994263 L 0.654701113701 31.3450584412 L 0.869914889336 30.5662155151 L 1.11493098736 29.7962322235 L 1.3893879652 29.0362434387 L 1.69287991524 28.2873725891 L 2.02495598793 27.5507354736 L 2.38512468338 26.8274173737 L 2.77285289764 26.1184902191 L 3.18756699562 25.4250049591 L 3.62865257263 24.7479858398 L 4.09545564651 24.0884380341 L 4.58728885651 23.4473361969 L 5.10341882706 22.8256282806 L 5.64308547974 22.2242393494 L 6.20548915863 21.6440563202 L 6.78979492188 21.0859375 L 7.39513969421 20.5507106781 L 8.02062702179 20.0391674042 L 8.66533088684 19.552066803 L 9.3282957077 19.0901279449 L 10.0085411072 18.6540355682 L 10.7050590515 18.244436264 L 11.4168195724 17.8619346619 L 12.1427679062 17.5070972443 L 12.8818302155 17.1804504395 L 13.6329116821 16.8824768066 L 14.3948993683 16.6136207581 L 15.1666660309 16.3742752075 L 15.5748987198 16.2402172089 L 15.972489357 16.0772857666 L 16.3573989868 15.8863182068 L 16.7276554108 15.6682920456 L 17.0813598633 15.4243278503 L 17.4166965485 15.1556749344 L 17.7319450378 14.8637104034 L 18.0254936218 14.5499353409 L 18.2958316803 14.2159557343 L 18.5415744781 13.863483429 L 18.7614593506 13.4943294525 L 18.9543647766 13.1103858948 L 19.1192951202 12.7136201859 L 19.2554073334 12.3060684204 L 19.3620052338 11.8898210526 L 19.4385375977 11.4670114517 L 19.4846153259 11.0398082733 L 19.5 10.6104030609 L 19.5 1.49999928474 L 19.5057067871 1.36926400661 L 19.5227870941 1.23952698708 L 19.5511112213 1.11177194118 L 19.590461731 0.986967206001 L 19.6405391693 0.866070389748 L 19.7009620667 0.749997794628 L 19.7712726593 0.639636039734 L 19.850933075 0.535815954208 L 19.9393386841 0.439338386059 L 20.0358181 0.350933521986 L 20.1396350861 0.271271914244 L 20.25 0.200960785151 L 20.3660736084 0.140536576509 L 20.4869689941 0.0904612243176 L 20.6117706299 0.0511109828949 L 20.7395267487 0.0227876007557 Z " stroke="#191919" stroke-width="0.35 px" style="stroke-width:0.35;stroke-miterlimit:4;stroke-dasharray:none;fill:#cccccc;fill-rule: evenodd "/>
</g>
</svg>