<?xml version="1.0" encoding="UTF-8" standalone="no"?>
<svg
   xmlns:dc="http://purl.org/dc/elements/1.1/"
   xmlns:cc="http://creativecommons.org/ns#"
   xmlns:rdf="http://www.w3.org/1999/02/22-rdf-syntax-ns#"
   xmlns:svg="http://www.w3.org/2000/svg"
   xmlns="http://www.w3.org/2000/svg"
   xmlns:sodipodi="http://sodipodi.sourceforge.net/DTD/sodipodi-0.dtd"
   xmlns:inkscape="http://www.inkscape.org/namespaces/inkscape"
   width="1344.024"
   height="956.65308"
   id="svg3935"
   version="1.1"
   inkscape:version="0.48.4 r9939"
   sodipodi:docname="Helical-434-6radialBase-scaled-imperial-B.svg">
  <metadata
     id="metadata4029">
    <rdf:RDF>
      <cc:Work
         rdf:about="">
        <dc:format>image/svg+xml</dc:format>
        <dc:type
           rdf:resource="http://purl.org/dc/dcmitype/StillImage" />
        <dc:title></dc:title>
      </cc:Work>
    </rdf:RDF>
  </metadata>
  <sodipodi:namedview
     pagecolor="#ffffff"
     bordercolor="#666666"
     borderopacity="1"
     objecttolerance="10"
     gridtolerance="10"
     guidetolerance="10"
     inkscape:pageopacity="0"
     inkscape:pageshadow="2"
     inkscape:window-width="1020"
     inkscape:window-height="641"
     id="namedview4027"
     showgrid="false"
     fit-margin-top="0"
     fit-margin-left="0"
     fit-margin-right="0"
     fit-margin-bottom="0"
     inkscape:document-units="in"
     inkscape:zoom="0.22425739"
     inkscape:cx="963.7172"
     inkscape:cy="634.73699"
     inkscape:window-x="-4"
     inkscape:window-y="-4"
     inkscape:window-maximized="1"
     inkscape:current-layer="g3983" />
  <desc
     id="desc3937">Z:\nheald On My Mac\Desktop\Laser stuff\SatNOGS_UHF-434-8\Helical-434-6radialBase.dxf - scale = 0.482001</desc>
  <defs
     id="defs3939">
    <inkscape:path-effect
       effect="skeletal"
       id="path-effect4885"
       is_visible="true"
       pattern="M 0,5 C 0,2.24 2.24,0 5,0 7.76,0 10,2.24 10,5 10,7.76 7.76,10 5,10 2.24,10 0,7.76 0,5 z"
       copytype="single_stretched"
       prop_scale="1"
       scale_y_rel="false"
       spacing="0"
       normal_offset="0"
       tang_offset="0"
       prop_units="false"
       vertical_pattern="false"
       fuse_tolerance="0" />
    <inkscape:path-effect
       effect="skeletal"
       id="path-effect4598"
       is_visible="true"
       pattern="M 0,5 C 0,2.24 2.24,0 5,0 7.76,0 10,2.24 10,5 10,7.76 7.76,10 5,10 2.24,10 0,7.76 0,5 z"
       copytype="single_stretched"
       prop_scale="1"
       scale_y_rel="false"
       spacing="0"
       normal_offset="0"
       tang_offset="0"
       prop_units="false"
       vertical_pattern="false"
       fuse_tolerance="0" />
    <inkscape:path-effect
       effect="skeletal"
       id="path-effect4593"
       is_visible="true"
       pattern="M 0,5 C 0,2.24 2.24,0 5,0 7.76,0 10,2.24 10,5 10,7.76 7.76,10 5,10 2.24,10 0,7.76 0,5 z"
       copytype="single_stretched"
       prop_scale="1"
       scale_y_rel="false"
       spacing="0"
       normal_offset="0"
       tang_offset="0"
       prop_units="false"
       vertical_pattern="false"
       fuse_tolerance="0" />
    <marker
       refY="0"
       refX="0"
       style="overflow:visible"
       id="DistanceX"
       orient="auto">
      <path
         style="stroke:#000000;stroke-width:0.5"
         d="M 3,-3 -3,3 M 0,-5 0,5"
         id="path3942"
         inkscape:connector-curvature="0" />
    </marker>
    <pattern
       height="8"
       width="8"
       patternUnits="userSpaceOnUse"
       y="0"
       x="0"
       id="Hatch">
      <path
         linecap="square"
         stroke="#000000"
         stroke-width="0.25"
         d="M8 4 l-4,4"
         id="path3945" />
      <path
         linecap="square"
         stroke="#000000"
         stroke-width="0.25"
         d="M6 2 l-4,4"
         id="path3947" />
      <path
         linecap="square"
         stroke="#000000"
         stroke-width="0.25"
         d="M4 0 l-4,4"
         id="path3949" />
    </pattern>
    <symbol
       id="*Model_Space" />
    <symbol
       id="*Paper_Space" />
    <symbol
       id="*D0">
      <path
         style="fill:none;stroke:#000000"
         d="m 158.02597,735.16979 41.46595,-15.7191"
         id="path3954"
         inkscape:connector-curvature="0" />
      <path
         style="fill:none;stroke:#000000"
         d="m 256.18476,697.95932 7.9849,-3.02696"
         id="path3956"
         inkscape:connector-curvature="0" />
      <text
         y="721.89819"
         x="172.14113"
         style="font-size:8.5px;line-height:125%;fill:#000000;font-family:Arial"
         sodipodi:linespacing="125%"
         id="text3958">
        <tspan
           sodipodi:role="line"
           id="tspan3960"
           x="172.14113"
           y="732.52319">∅25,5</tspan>
      </text>
      <path
         style="fill:none;stroke:#000000"
         d="m 248.19985,700.98627 -40.72302,15.43747"
         id="path3962"
         inkscape:connector-curvature="0" />
      <path
         inkscape:dxfpoint="1"
         style="fill:#ff0000;stroke:#ff0000"
         d="m 207.47683,716.42374 2.9375,-6.34375 0.8125,1.90625 6.84375,-6.84375 0,0 0.6875,0.6875 -6.84375,6.84375 1.90625,0.8125 z"
         id="path3964"
         inkscape:connector-curvature="0" />
      <path
         inkscape:dxfpoint="1"
         style="fill:#ff0000;stroke:#ff0000"
         d="m 248.19985,700.98627 2.9375,-6.34375 0.8125,1.90625 6.84375,-6.84375 0,0 0.6875,0.6875 -6.84375,6.84375 1.90625,0.8125 z"
         id="path3966"
         inkscape:connector-curvature="0" />
    </symbol>
    <symbol
       id="*D1">
      <path
         style="fill:none;stroke:#000000"
         d="m 236.72855,605.17668 -43.719,-6.54863"
         id="path3969"
         inkscape:connector-curvature="0" />
      <text
         y="597.33142"
         x="222.60309"
         style="font-size:8.5px;line-height:125%;fill:#000000;font-family:Arial"
         sodipodi:linespacing="125%"
         id="text3971">
        <tspan
           sodipodi:role="line"
           id="tspan3973"
           x="222.60309"
           y="607.95642">∅220</tspan>
      </text>
      <path
         inkscape:dxfpoint="1"
         style="fill:#ff0000;stroke:#ff0000"
         d="m 186.25342,597.61606 2.9375,-6.34375 0.8125,1.90625 6.84375,-6.84375 0,0 0.6875,0.6875 -6.84375,6.84375 1.90625,0.8125 z"
         id="path3975"
         inkscape:connector-curvature="0" />
      <path
         inkscape:dxfpoint="1"
         style="fill:#ff0000;stroke:#ff0000"
         d="m 557.84107,653.27585 2.9375,-6.34375 0.8125,1.90625 6.84375,-6.84375 0,0 0.6875,0.6875 -6.84375,6.84375 1.90625,0.8125 z"
         id="path3977"
         inkscape:connector-curvature="0" />
    </symbol>
  </defs>
  <g
     inkscape:label="0"
     inkscape:groupmode="layer"
     id="g3979"
     transform="translate(574.82596,430.44542)" />
  <g
     inkscape:label="plexi"
     inkscape:groupmode="layer"
     id="g3983"
     transform="translate(574.82596,430.44542)">
    <g
       id="g4894"
       transform="matrix(0,1,-1,0,145.06716,-49.304924)">
      <path
         inkscape:connector-curvature="0"
         id="path3999"
         d="m -338.24853,-164.16631 a 7.068686,7.068686 0 1 0 -14.13737,0 7.068686,7.068686 0 0 0 14.13737,0 z"
         style="fill:none;stroke:#0000ff;stroke-width:1.00000012;stroke-opacity:1" />
      <path
         inkscape:connector-curvature="0"
         id="path4001"
         d="m 396.35085,-588.28746 a 7.068686,7.068686 0 1 0 -14.13737,0 7.068686,7.068686 0 1 0 14.13737,0 z"
         style="fill:none;stroke:#0000ff;stroke-width:1.00000012;stroke-opacity:1" />
      <path
         inkscape:connector-curvature="0"
         id="path4009"
         d="m -338.24853,684.07599 a 7.068686,7.068686 0 1 0 -14.13737,0 7.068686,7.068686 0 0 0 14.13737,0 z"
         style="fill:none;stroke:#0000ff;stroke-width:1.00000012;stroke-opacity:1" />
      <path
         inkscape:connector-curvature="0"
         id="path4011"
         d="m 223.16804,-76.736543 a 28.274746,28.274746 0 1 0 -56.54949,0 28.274746,28.274746 0 0 0 56.54949,0 z"
         style="fill:none;stroke:#0000ff;stroke-width:1.00000012;stroke-opacity:1" />
      <path
         inkscape:connector-curvature="0"
         id="path4013"
         d="m 224.05163,-38.476161 a 7.068686,7.068686 0 1 0 -14.13737,0 7.068686,7.068686 0 1 0 14.13737,0 z"
         style="fill:none;stroke:#0000ff;stroke-width:1.00000012;stroke-opacity:1" />
      <path
         inkscape:connector-curvature="0"
         id="path4015"
         d="m 179.87235,-114.99693 a 7.068695,7.068695 0 1 0 -14.13739,0 7.068695,7.068695 0 0 0 14.13739,0 z"
         style="fill:none;stroke:#0000ff;stroke-width:1.00000012;stroke-opacity:1" />
      <path
         id="path4890"
         d="M 113.60215,528.7301 C 77.415469,527.45883 40.946214,535.1986 8.3951141,551.05792 L -329.83702,715.84896 c -7.94623,3.87152 -17.36832,4.61008 -25.82074,2.02398 -8.45241,-2.58609 -15.84822,-8.47025 -20.26781,-16.12521 -4.41959,-7.65496 -5.81752,-17.002 -3.83094,-25.61505 1.98658,-8.61305 7.33724,-16.40355 14.66319,-21.34942 L -53.264042,444.26114 c 30.010118,-20.26042 54.9475863,-47.97383 71.93997,-79.94806 16.992384,-31.97422 26.007798,-68.14925 26.007798,-104.35825 0,-36.209 -9.015414,-72.38403 -26.007798,-104.35826 C 1.6835443,123.62235 -23.253924,95.908941 -53.264042,75.648519 L -365.09332,-134.87358 c -7.32596,-4.94587 -12.67664,-12.73636 -14.66323,-21.34942 -1.9866,-8.61306 -0.58867,-17.96012 3.83093,-25.61508 4.41959,-7.65497 11.81542,-13.53914 20.26784,-16.12523 8.45242,-2.58609 17.87453,-1.84752 25.82076,2.02402 L 8.3951141,-31.148249 c 25.9748369,12.655268 54.4369869,20.180147 83.2723589,22.0157079 11.429517,0.7275702 23.075357,-4.5079219 30.117507,-13.5396019 7.04216,-9.031679 9.28026,-21.602552 5.78798,-32.509762 -4.87517,-15.226334 -4.37851,-32.114599 1.38301,-47.028125 5.76153,-14.91353 16.74811,-27.74923 30.59391,-35.74311 13.84581,-7.99388 30.45514,-11.09069 46.2514,-8.62355 15.79626,2.46713 30.67025,10.48115 41.41906,22.31633 7.69978,8.47801 19.70552,12.8252 31.04827,11.24236 11.34274,-1.58284 21.69973,-9.05068 26.7844,-19.31272 12.82804,-25.88995 20.54238,-54.30135 22.57001,-83.12386 l 26.40285,-375.31312 c 0.62029,-8.81738 4.69173,-17.34643 11.15756,-23.37337 6.46583,-6.02694 15.25956,-9.48981 24.09873,-9.48981 8.83918,0 17.63291,3.46287 24.09874,9.48981 6.46583,6.02694 10.53727,14.55599 11.15756,23.37337 l 26.40285,375.31312 c 2.54098,36.11974 14.07276,71.57293 33.26706,102.27588 9.26753,14.669001 20.57674,28.554826 33.58608,41.168308 3.25234,3.15337 6.61093,6.227219 10.07045,9.213903 1.72976,1.493342 3.48474,2.964893 4.93669,4.245463 2.39433,3.151666 6.03965,8.189246 10.33762,14.620686 4.29797,6.43144 9.24856,14.2568 14.62788,23.07282 5.37933,8.81602 11.18783,18.62198 17.24549,28.94027 l 0,10e-6 c -1.51727,-0.0445 -3.0453,-0.0896 -4.58304,-0.13553 C 557.97949,7.57537 546.06855,7.1787 535.2479,6.68287 524.42726,6.18705 514.69741,5.59123 506.56533,4.89605 498.43325,4.20086 493.43178,4.9589436 487.85612,4.0396467 484.66688,3.1261919 483.6806,2.763997 481.57023,2.0097737 c -4.22073,-1.50844676 -8.47862,-2.91282175 -12.7684,-4.2120752 -8.57955,-2.5985041 -17.28665,-4.7765277 -26.07907,-6.5256633 -17.58483,-3.4982712 -35.51095,-5.2810022 -53.44061,-5.2810022 -35.8593,0 -71.70448,7.1309239 -104.8335,20.8552461 -33.12902,13.7243219 -63.5158,34.0312399 -88.86973,59.3900049 -25.35394,25.358764 -45.65507,55.749416 -59.37309,88.881056 -13.71801,33.13164 -20.8421,68.97819 -20.83525,104.83749 0.007,35.85058 7.14113,71.6857 20.8653,104.80535 13.72417,33.11965 34.02743,63.49777 59.38005,88.84553 12.6763,12.67387 26.60996,24.08517 41.51482,34.04273 3.72622,2.48939 7.51313,4.88792 11.27155,7.59862 -3.78974,-0.25127 -7.24911,1.12963 -13.99085,0.71273 -6.74173,-0.4169 -14.81496,-0.6807 -23.79556,-0.8074 -8.98059,-0.127 -18.86804,-0.117 -29.19173,-0.064 0.047,0.0931 0.094,0.1865 0.14099,0.2795 4.66477,9.2458 9.17106,18.0855 13.38558,26.0549 4.21452,7.9695 8.1378,15.0679 11.59003,20.9072 3.45223,5.8393 8.66299,13.2065 10.69252,16.13891 -31.60824,-18.18759 -67.44445,-28.46753 -103.63113,-29.7388 z"
         style="fill:none;stroke:#000000;stroke-width:1.00000012"
         inkscape:connector-curvature="0" />
      <path
         inkscape:connector-curvature="0"
         id="path3905-1-2"
         d="m 426.97902,-92.262009 a 36.704725,36.704875 0 1 0 -73.40945,0 36.704725,36.704875 0 0 0 73.40945,0 z"
         style="fill:none;stroke:#0000ff;stroke-width:0.99999988;stroke-opacity:1" />
      <path
         inkscape:connector-curvature="0"
         id="path3905-1-5"
         d="m 122.08382,438.93564 a 36.704725,36.704875 0 1 0 -73.409442,0 36.704725,36.704875 0 0 0 73.409442,0 z"
         style="fill:none;stroke:#0000ff;stroke-width:0.99999988;stroke-opacity:1" />
      <path
         inkscape:connector-curvature="0"
         id="path3905-1-51"
         d="m 122.08382,80.53051 a 36.704725,36.704875 0 1 0 -73.409442,0 36.704725,36.704875 0 0 0 73.409442,0 z"
         style="fill:none;stroke:#0000ff;stroke-width:0.99999988;stroke-opacity:1" />
      <text
         transform="matrix(0.70869274,-0.70551726,0.70551726,0.70869274,0,0)"
         sodipodi:linespacing="125%"
         id="text4858"
         y="139.17656"
         x="74.228966"
         style="font-size:35.45632935px;font-style:normal;font-variant:normal;font-weight:bold;font-stretch:normal;line-height:125%;letter-spacing:0px;word-spacing:0px;fill:none;stroke:#ffff00;stroke-opacity:1;font-family:Arial;-inkscape-font-specification:Arial Bold"
         xml:space="preserve"><tspan
           y="139.17656"
           x="74.228966"
           id="tspan4860"
           sodipodi:role="line">TOP</tspan></text>
    </g>
  </g>
  <g
     inkscape:label="metal"
     inkscape:groupmode="layer"
     id="g4019"
     transform="translate(574.82596,430.44542)" />
  <g
     inkscape:label="PVC"
     inkscape:groupmode="layer"
     id="g4021"
     transform="translate(574.82596,430.44542)" />
  <g
     inkscape:label="Defpoints"
     inkscape:groupmode="layer"
     id="g4023"
     transform="translate(574.82596,430.44542)" />
  <g
     inkscape:label="*ADSK_ASSOC_ENTITY_BACKUPS"
     inkscape:groupmode="layer"
     id="g4025"
     transform="translate(574.82596,430.44542)" />
</svg>
