<?xml version="1.0" encoding="UTF-8" standalone="no"?>
<svg
   xmlns:dc="http://purl.org/dc/elements/1.1/"
   xmlns:cc="http://creativecommons.org/ns#"
   xmlns:rdf="http://www.w3.org/1999/02/22-rdf-syntax-ns#"
   xmlns:svg="http://www.w3.org/2000/svg"
   xmlns="http://www.w3.org/2000/svg"
   xmlns:sodipodi="http://sodipodi.sourceforge.net/DTD/sodipodi-0.dtd"
   xmlns:inkscape="http://www.inkscape.org/namespaces/inkscape"
   width="1340.9314"
   height="981.53705"
   id="svg3935"
   version="1.1"
   inkscape:version="0.48.4 r9939"
   sodipodi:docname="Helical-434-6radialBase-scaled-imperial-A.svg">
  <metadata
     id="metadata4029">
    <rdf:RDF>
      <cc:Work
         rdf:about="">
        <dc:format>image/svg+xml</dc:format>
        <dc:type
           rdf:resource="http://purl.org/dc/dcmitype/StillImage" />
        <dc:title />
      </cc:Work>
    </rdf:RDF>
  </metadata>
  <sodipodi:namedview
     pagecolor="#ffffff"
     bordercolor="#666666"
     borderopacity="1"
     objecttolerance="10"
     gridtolerance="10"
     guidetolerance="10"
     inkscape:pageopacity="0"
     inkscape:pageshadow="2"
     inkscape:window-width="1020"
     inkscape:window-height="641"
     id="namedview4027"
     showgrid="false"
     fit-margin-top="0"
     fit-margin-left="0"
     fit-margin-right="0"
     fit-margin-bottom="0"
     inkscape:document-units="in"
     inkscape:zoom="0.22425739"
     inkscape:cx="687.78753"
     inkscape:cy="419.96748"
     inkscape:window-x="-4"
     inkscape:window-y="-4"
     inkscape:window-maximized="1"
     inkscape:current-layer="g3983"
     units="in" />
  <desc
     id="desc3937">Z:\nheald On My Mac\Desktop\Laser stuff\SatNOGS_UHF-434-8\Helical-434-6radialBase.dxf - scale = 0.482001</desc>
  <defs
     id="defs3939">
    <inkscape:path-effect
       effect="skeletal"
       id="path-effect4885"
       is_visible="true"
       pattern="M 0,5 C 0,2.24 2.24,0 5,0 7.76,0 10,2.24 10,5 10,7.76 7.76,10 5,10 2.24,10 0,7.76 0,5 z"
       copytype="single_stretched"
       prop_scale="1"
       scale_y_rel="false"
       spacing="0"
       normal_offset="0"
       tang_offset="0"
       prop_units="false"
       vertical_pattern="false"
       fuse_tolerance="0" />
    <inkscape:path-effect
       effect="skeletal"
       id="path-effect4598"
       is_visible="true"
       pattern="M 0,5 C 0,2.24 2.24,0 5,0 7.76,0 10,2.24 10,5 10,7.76 7.76,10 5,10 2.24,10 0,7.76 0,5 z"
       copytype="single_stretched"
       prop_scale="1"
       scale_y_rel="false"
       spacing="0"
       normal_offset="0"
       tang_offset="0"
       prop_units="false"
       vertical_pattern="false"
       fuse_tolerance="0" />
    <inkscape:path-effect
       effect="skeletal"
       id="path-effect4593"
       is_visible="true"
       pattern="M 0,5 C 0,2.24 2.24,0 5,0 7.76,0 10,2.24 10,5 10,7.76 7.76,10 5,10 2.24,10 0,7.76 0,5 z"
       copytype="single_stretched"
       prop_scale="1"
       scale_y_rel="false"
       spacing="0"
       normal_offset="0"
       tang_offset="0"
       prop_units="false"
       vertical_pattern="false"
       fuse_tolerance="0" />
    <marker
       refY="0"
       refX="0"
       style="overflow:visible"
       id="DistanceX"
       orient="auto">
      <path
         style="stroke:#000000;stroke-width:0.5"
         d="M 3,-3 -3,3 M 0,-5 0,5"
         id="path3942"
         inkscape:connector-curvature="0" />
    </marker>
    <pattern
       height="8"
       width="8"
       patternUnits="userSpaceOnUse"
       y="0"
       x="0"
       id="Hatch">
      <path
         linecap="square"
         stroke="#000000"
         stroke-width="0.25"
         d="M8 4 l-4,4"
         id="path3945" />
      <path
         linecap="square"
         stroke="#000000"
         stroke-width="0.25"
         d="M6 2 l-4,4"
         id="path3947" />
      <path
         linecap="square"
         stroke="#000000"
         stroke-width="0.25"
         d="M4 0 l-4,4"
         id="path3949" />
    </pattern>
    <symbol
       id="*Model_Space" />
    <symbol
       id="*Paper_Space" />
    <symbol
       id="*D0">
      <path
         style="fill:none;stroke:#000000"
         d="m 158.02597,735.16979 41.46595,-15.7191"
         id="path3954"
         inkscape:connector-curvature="0" />
      <path
         style="fill:none;stroke:#000000"
         d="m 256.18476,697.95932 7.9849,-3.02696"
         id="path3956"
         inkscape:connector-curvature="0" />
      <text
         y="721.89819"
         x="172.14113"
         style="font-size:8.5px;line-height:125%;fill:#000000;font-family:Arial"
         sodipodi:linespacing="125%"
         id="text3958">
        <tspan
           sodipodi:role="line"
           id="tspan3960"
           x="172.14113"
           y="732.52319">∅25,5</tspan>
      </text>
      <path
         style="fill:none;stroke:#000000"
         d="m 248.19985,700.98627 -40.72302,15.43747"
         id="path3962"
         inkscape:connector-curvature="0" />
      <path
         inkscape:dxfpoint="1"
         style="fill:#ff0000;stroke:#ff0000"
         d="m 207.47683,716.42374 2.9375,-6.34375 0.8125,1.90625 6.84375,-6.84375 0,0 0.6875,0.6875 -6.84375,6.84375 1.90625,0.8125 z"
         id="path3964"
         inkscape:connector-curvature="0" />
      <path
         inkscape:dxfpoint="1"
         style="fill:#ff0000;stroke:#ff0000"
         d="m 248.19985,700.98627 2.9375,-6.34375 0.8125,1.90625 6.84375,-6.84375 0,0 0.6875,0.6875 -6.84375,6.84375 1.90625,0.8125 z"
         id="path3966"
         inkscape:connector-curvature="0" />
    </symbol>
    <symbol
       id="*D1">
      <path
         style="fill:none;stroke:#000000"
         d="m 236.72855,605.17668 -43.719,-6.54863"
         id="path3969"
         inkscape:connector-curvature="0" />
      <text
         y="597.33142"
         x="222.60309"
         style="font-size:8.5px;line-height:125%;fill:#000000;font-family:Arial"
         sodipodi:linespacing="125%"
         id="text3971">
        <tspan
           sodipodi:role="line"
           id="tspan3973"
           x="222.60309"
           y="607.95642">∅220</tspan>
      </text>
      <path
         inkscape:dxfpoint="1"
         style="fill:#ff0000;stroke:#ff0000"
         d="m 186.25342,597.61606 2.9375,-6.34375 0.8125,1.90625 6.84375,-6.84375 0,0 0.6875,0.6875 -6.84375,6.84375 1.90625,0.8125 z"
         id="path3975"
         inkscape:connector-curvature="0" />
      <path
         inkscape:dxfpoint="1"
         style="fill:#ff0000;stroke:#ff0000"
         d="m 557.84107,653.27585 2.9375,-6.34375 0.8125,1.90625 6.84375,-6.84375 0,0 0.6875,0.6875 -6.84375,6.84375 1.90625,0.8125 z"
         id="path3977"
         inkscape:connector-curvature="0" />
    </symbol>
  </defs>
  <g
     inkscape:label="0"
     inkscape:groupmode="layer"
     id="g3979"
     transform="translate(-49.947486,-122.72029)" />
  <g
     inkscape:label="plexi"
     inkscape:groupmode="layer"
     id="g3983"
     transform="translate(-49.947486,-122.72029)">
    <g
       id="g3040"
       transform="matrix(0.00419445,-0.9999912,0.9999912,0.00419445,245.21519,1283.1033)">
      <path
         inkscape:connector-curvature="0"
         id="path4003"
         d="m 1130.9502,-164.16631 a 7.0687,7.0687 0 1 0 -14.1374,0 7.0687,7.0687 0 1 0 14.1374,0 z"
         style="fill:none;stroke:#0000ff;stroke-width:1.00000012;stroke-opacity:1" />
      <path
         inkscape:connector-curvature="0"
         id="path4005"
         d="m 1130.9502,684.07599 a 7.0687,7.0687 0 1 0 -14.1374,0 7.0687,7.0687 0 1 0 14.1374,0 z"
         style="fill:none;stroke:#0000ff;stroke-width:1.00000012;stroke-opacity:1" />
      <path
         inkscape:connector-curvature="0"
         id="path4007"
         d="m 396.35085,1108.1972 a 7.068686,7.068686 0 1 0 -14.13737,0 7.068686,7.068686 0 1 0 14.13737,0 z"
         style="fill:none;stroke:#0000ff;stroke-width:1.00000012;stroke-opacity:1" />
      <path
         inkscape:connector-curvature="0"
         id="path4017"
         d="m 216.98295,558.38581 c 31.35792,18.1045 58.17871,43.9996 77.37301,74.70255 19.19429,30.70294 30.72608,66.15613 33.26706,102.27587 l 26.40285,375.31317 c 0.62029,8.8174 4.69173,17.3464 11.15756,23.3734 6.46583,6.0269 15.25956,9.4898 24.09873,9.4898 8.83918,0 17.63291,-3.4629 24.09874,-9.4898 6.46583,-6.027 10.53727,-14.556 11.15756,-23.3734 l 26.40285,-375.31317 c 2.54098,-36.11974 14.07277,-71.57292 33.26706,-102.27587 19.1943,-30.70295 46.01509,-56.59804 77.37301,-74.70254 31.35791,-18.10451 67.19412,-28.38444 103.3808,-29.65572 36.18668,-1.27127 72.65593,6.46851 105.20703,22.32782 l 338.23209,164.79104 c 7.9462,3.87152 17.3683,4.61008 25.8207,2.02398 8.4524,-2.58609 15.8483,-8.47025 20.2678,-16.12521 4.4196,-7.65496 5.8176,-17.002 3.831,-25.61505 -1.9866,-8.61305 -7.3373,-16.40355 -14.6632,-21.34942 L 831.82837,444.26114 c -30.01012,-20.26042 -54.94759,-47.97383 -71.93997,-79.94806 -16.99238,-31.97422 -26.0078,-68.14925 -26.0078,-104.35825 0,-36.209 9.01542,-72.38403 26.0078,-104.35826 16.99238,-31.97422 41.92985,-59.687629 71.93997,-79.948051 L 1143.6576,-134.87358 c 7.326,-4.94587 12.6766,-12.73636 14.6632,-21.34942 1.9866,-8.61306 0.5887,-17.96012 -3.8309,-25.61508 -4.4196,-7.65497 -11.8154,-13.53914 -20.2678,-16.12523 -8.4525,-2.58609 -17.8746,-1.84752 -25.8208,2.02402 L 770.16921,-31.148249 c -32.5511,15.859315 -69.02036,23.5990908 -105.20704,22.3278159 -28.9834,-1.7738099 -54.44995,-7.1971859 -79.08718,-17.5629469 -4.16738,-1.764777 -8.28092,-3.656438 -12.33254,-5.672671 -4.05163,-2.016233 -8.04134,-4.157037 -11.96108,-6.4201 -8.03405,-4.789811 -15.72844,-10.020001 -23.04049,-15.629423 -1.82801,-1.402356 -3.63213,-2.828414 -5.15744,-4.221986 2.64857,3.206898 5.4578,7.96578 9.75577,14.39722 4.29797,6.43144 9.24856,14.2568 14.62788,23.07282 5.37933,8.81602 11.18783,18.62198 17.24549,28.94027 l 0,10e-6 c -1.51727,-0.0445 -3.0453,-0.0896 -4.58304,-0.13553 C 557.97949,7.57537 546.06855,7.1787 535.2479,6.68287 524.42726,6.18705 514.69741,5.59123 506.56533,4.89605 498.43325,4.20086 493.71048,4.680246 488.00381,4.0556577 c 1.96011,1.1008366 4.04129,1.9328512 6.11185,2.7906214 31.68382,13.2665449 62.43241,33.4903329 88.86973,59.3900049 25.35394,25.358764 45.65507,55.749416 59.37309,88.881056 13.71801,33.13164 20.84225,68.97819 20.83525,104.83749 -0.007,35.85058 -7.14113,71.6857 -20.8653,104.80535 -13.72417,33.11965 -34.02743,63.49778 -59.38005,88.84553 -25.35261,25.34775 -55.73462,45.64519 -88.85689,59.36301 -33.12227,13.71782 -68.95876,20.84523 -104.80934,20.84523 -35.85057,0 -71.68706,-7.12741 -104.80933,-20.84523 -8.28057,-3.42946 -16.38987,-7.27014 -24.29214,-11.49815 -3.95113,-2.114 -7.8505,-3.76744 -11.69365,-6.07213 l -0.0847,-0.15138 c -3.78974,-0.25127 -7.24911,1.12963 -13.99085,0.71273 -6.74173,-0.4169 -14.81496,-0.6807 -23.79556,-0.8074 -8.98059,-0.127 -18.86804,-0.117 -29.19173,-0.064 0.047,0.0931 0.094,0.1865 0.14099,0.2795 4.66477,9.2458 9.17106,18.0855 13.38558,26.0549 4.21452,7.9695 8.1378,15.0679 11.59003,20.9072 3.45223,5.8393 8.66299,13.2065 10.69252,16.13891"
         style="fill:none;stroke:#000000;stroke-width:1.00000012" />
      <path
         inkscape:connector-curvature="0"
         id="path3905-1-4"
         d="m 731.8742,437.82085 a 36.704725,36.704875 0 1 0 -73.40945,0 36.704725,36.704875 0 0 0 73.40945,0 z"
         style="fill:none;stroke:#0000ff;stroke-width:0.99999988;stroke-opacity:1" />
      <path
         inkscape:connector-curvature="0"
         id="path3905-1-7"
         d="m 730.75941,81.645301 a 36.704725,36.704875 0 1 0 -73.40945,0 36.704725,36.704875 0 0 0 73.40945,0 z"
         style="fill:none;stroke:#0000ff;stroke-width:0.99999988;stroke-opacity:1" />
      <path
         inkscape:connector-curvature="0"
         id="path3905-1-1"
         d="m 426.97902,612.28556 a 36.704725,36.704875 0 1 0 -73.40945,0 36.704725,36.704875 0 0 0 73.40945,0 z"
         style="fill:none;stroke:#0000ff;stroke-width:0.99999988;stroke-opacity:1" />
      <text
         transform="matrix(0.83009556,-0.55762116,0.55762116,0.83009556,0,0)"
         sodipodi:linespacing="125%"
         id="text4858-1"
         y="753.46881"
         x="50.675629"
         style="font-size:35.45632935px;font-style:normal;font-variant:normal;font-weight:bold;font-stretch:normal;line-height:125%;letter-spacing:0px;word-spacing:0px;fill:none;stroke:#ffff00;stroke-width:1;stroke-opacity:1;font-family:Arial;-inkscape-font-specification:Arial Bold"
         xml:space="preserve"><tspan
           y="753.46881"
           x="50.675629"
           id="tspan4860-5"
           sodipodi:role="line"
           style="stroke-width:1">TOP</tspan></text>
    </g>
  </g>
  <g
     inkscape:label="metal"
     inkscape:groupmode="layer"
     id="g4019"
     transform="translate(-49.947486,-122.72029)" />
  <g
     inkscape:label="PVC"
     inkscape:groupmode="layer"
     id="g4021"
     transform="translate(-49.947486,-122.72029)" />
  <g
     inkscape:label="Defpoints"
     inkscape:groupmode="layer"
     id="g4023"
     transform="translate(-49.947486,-122.72029)" />
  <g
     inkscape:label="*ADSK_ASSOC_ENTITY_BACKUPS"
     inkscape:groupmode="layer"
     id="g4025"
     transform="translate(-49.947486,-122.72029)" />
</svg>
